<svg xmlns="http://www.w3.org/2000/svg" xmlns:xlink="http://www.w3.org/1999/xlink" width="500" zoomAndPan="magnify" viewBox="0 0 375 374.999991" height="500" preserveAspectRatio="xMidYMid meet" version="1.0"><defs><g/><clipPath id="6666f2b87f"><path d="M 0 155.863281 L 374.082031 155.863281 L 374.082031 202.835938 L 0 202.835938 Z M 0 155.863281 " clip-rule="nonzero"/></clipPath></defs><g fill="#430c29" fill-opacity="1"><g transform="translate(49.343446, 231.719054)"><g><path d="M 61.21875 0 L 16 -128.765625 C 14.550781 -132.710938 12.769531 -135.410156 10.65625 -136.859375 C 8.550781 -138.316406 5.789062 -139.046875 2.375 -139.046875 L 0 -139.046875 L 0 -141.015625 L 57.28125 -141.015625 L 57.28125 -139.046875 L 50.5625 -139.046875 C 47.007812 -139.046875 44.273438 -138.515625 42.359375 -137.453125 C 40.453125 -136.398438 39.5 -134.492188 39.5 -131.734375 C 39.5 -129.359375 40.15625 -126.328125 41.46875 -122.640625 L 65.5625 -52.53125 C 70.175781 -39.363281 73.800781 -27.582031 76.4375 -17.1875 C 77.882812 -22.050781 79.53125 -27.445312 81.375 -33.375 C 83.21875 -39.300781 84.992188 -44.898438 86.703125 -50.171875 L 109.421875 -121.265625 C 110.867188 -125.347656 111.59375 -128.570312 111.59375 -130.9375 C 111.59375 -133.96875 110.570312 -136.078125 108.53125 -137.265625 C 106.488281 -138.453125 103.226562 -139.046875 98.75 -139.046875 L 86.703125 -139.046875 L 86.703125 -141.015625 L 134.5 -141.015625 L 134.5 -139.046875 L 127.78125 -139.046875 C 123.96875 -139.046875 120.941406 -137.957031 118.703125 -135.78125 C 116.460938 -133.601562 114.484375 -129.6875 112.765625 -124.03125 L 72.6875 0 Z M 61.21875 0 "/></g></g></g><g fill="#430c29" fill-opacity="1"><g transform="translate(183.837728, 231.719054)"><g><path d="M 0.203125 0 L 0.203125 -1.96875 L 6.515625 -1.96875 C 10.597656 -1.96875 13.820312 -3.085938 16.1875 -5.328125 C 18.5625 -7.566406 20.738281 -11.519531 22.71875 -17.1875 L 66.5625 -141.015625 L 79.203125 -141.015625 L 127.1875 -13.4375 C 128.894531 -9.082031 130.671875 -6.082031 132.515625 -4.4375 C 134.359375 -2.789062 136.796875 -1.96875 139.828125 -1.96875 L 141.8125 -1.96875 L 141.8125 0 L 84.53125 0 L 84.53125 -1.96875 L 90.84375 -1.96875 C 95.320312 -1.96875 98.546875 -2.523438 100.515625 -3.640625 C 102.492188 -4.765625 103.484375 -6.773438 103.484375 -9.671875 C 103.484375 -10.722656 103.351562 -12.003906 103.09375 -13.515625 C 102.832031 -15.035156 102.375 -16.71875 101.71875 -18.5625 L 89.859375 -51.34375 L 37.125 -51.34375 L 26.0625 -20.34375 C 25.40625 -18.363281 24.878906 -16.617188 24.484375 -15.109375 C 24.085938 -13.597656 23.890625 -12.179688 23.890625 -10.859375 C 23.890625 -7.566406 25.238281 -5.257812 27.9375 -3.9375 C 30.644531 -2.625 35.023438 -1.96875 41.078125 -1.96875 L 48.1875 -1.96875 L 48.1875 0 Z M 37.71875 -53.328125 L 89.078125 -53.328125 L 75.25 -91.25 C 73.007812 -97.4375 70.832031 -103.65625 68.71875 -109.90625 C 66.613281 -116.164062 64.90625 -121.925781 63.59375 -127.1875 C 61.75 -121.65625 59.9375 -116.390625 58.15625 -111.390625 C 56.382812 -106.390625 54.378906 -100.660156 52.140625 -94.203125 Z M 37.71875 -53.328125 "/></g></g></g><g clip-path="url(#6666f2b87f)"><path fill="#ffffff" d="M -3.542969 155.863281 L 374.082031 155.863281 L 374.082031 202.835938 L -3.542969 202.835938 Z M -3.542969 155.863281 " fill-opacity="1" fill-rule="nonzero"/></g><g fill="#b38c9f" fill-opacity="1"><g transform="translate(18.616671, 185.851775)"><g><path d="M 6.347656 0.816406 L 12.476562 -13.527344 L 10.960938 -13.527344 L 6.347656 -2.625 L 1.710938 -13.527344 L 0.199219 -13.527344 Z M 6.347656 0.816406 "/></g></g></g><g fill="#b38c9f" fill-opacity="1"><g transform="translate(46.577549, 185.851775)"><g><path d="M 2.886719 0 L 2.886719 -13.527344 L 1.492188 -13.527344 L 1.492188 0 Z M 2.886719 0 "/></g></g></g><g fill="#b38c9f" fill-opacity="1"><g transform="translate(66.242142, 185.851775)"><g><path d="M 6.347656 0.816406 L 12.476562 -13.527344 L 10.960938 -13.527344 L 6.347656 -2.625 L 1.710938 -13.527344 L 0.199219 -13.527344 Z M 6.347656 0.816406 "/></g></g></g><g fill="#b38c9f" fill-opacity="1"><g transform="translate(94.203022, 185.851775)"><g><path d="M 2.886719 0 L 2.886719 -13.527344 L 1.492188 -13.527344 L 1.492188 0 Z M 2.886719 0 "/></g></g></g><g fill="#b38c9f" fill-opacity="1"><g transform="translate(113.867613, 185.851775)"><g><path d="M 3.679688 -4.972656 L 6.148438 -11.203125 L 8.59375 -4.972656 Z M 12.078125 0 L 6.148438 -14.464844 L 0.199219 0 L 1.710938 0 L 3.164062 -3.679688 L 9.113281 -3.679688 L 10.566406 0 Z M 12.078125 0 "/></g></g></g><g fill="#b38c9f" fill-opacity="1"><g transform="translate(141.430586, 185.851775)"><g><path d="M 2.886719 -9.96875 L 10.484375 0.835938 L 10.484375 -13.527344 L 9.09375 -13.527344 L 9.09375 -3.582031 L 1.492188 -14.382812 L 1.492188 0 L 2.886719 0 Z M 2.886719 -9.96875 "/></g></g></g><g fill="#b38c9f" fill-opacity="1"><g transform="translate(168.69514, 185.851775)"><g/></g></g><g fill="#b38c9f" fill-opacity="1"><g transform="translate(189.354487, 185.851775)"><g><path d="M 3.679688 -4.972656 L 6.148438 -11.203125 L 8.59375 -4.972656 Z M 12.078125 0 L 6.148438 -14.464844 L 0.199219 0 L 1.710938 0 L 3.164062 -3.679688 L 9.113281 -3.679688 L 10.566406 0 Z M 12.078125 0 "/></g></g></g><g fill="#b38c9f" fill-opacity="1"><g transform="translate(216.91746, 185.851775)"><g><path d="M 14.800781 -6.746094 C 14.800781 -7.699219 14.605469 -8.59375 14.246094 -9.449219 C 13.886719 -10.285156 13.390625 -11.023438 12.753906 -11.660156 C 12.117188 -12.296875 11.378906 -12.792969 10.542969 -13.152344 C 9.6875 -13.507812 8.792969 -13.707031 7.839844 -13.707031 C 6.882812 -13.707031 5.96875 -13.507812 5.132812 -13.152344 C 4.296875 -12.792969 3.5625 -12.296875 2.925781 -11.660156 C 2.289062 -11.023438 1.789062 -10.285156 1.433594 -9.449219 C 1.074219 -8.59375 0.894531 -7.699219 0.894531 -6.746094 C 0.894531 -5.789062 1.074219 -4.875 1.433594 -4.039062 C 1.789062 -3.203125 2.289062 -2.46875 2.925781 -1.832031 C 3.5625 -1.195312 4.296875 -0.695312 5.132812 -0.339844 C 5.96875 0.0195312 6.882812 0.199219 7.839844 0.199219 C 8.394531 0.199219 8.953125 0.140625 9.492188 0 L 15 0 L 15 -1.132812 L 12.972656 -1.132812 C 12.476562 -1.015625 11.957031 -0.894531 11.398438 -0.777344 C 11.898438 -1.074219 12.355469 -1.433594 12.753906 -1.832031 C 13.390625 -2.46875 13.886719 -3.203125 14.246094 -4.039062 C 14.605469 -4.875 14.800781 -5.789062 14.800781 -6.746094 Z M 13.410156 -6.746094 C 13.410156 -5.210938 12.851562 -3.898438 11.777344 -2.824219 C 10.683594 -1.730469 9.371094 -1.195312 7.839844 -1.195312 C 6.308594 -1.195312 4.992188 -1.730469 3.917969 -2.824219 C 2.824219 -3.898438 2.289062 -5.210938 2.289062 -6.746094 C 2.289062 -8.277344 2.824219 -9.589844 3.917969 -10.683594 C 4.992188 -11.757812 6.308594 -12.316406 7.839844 -12.316406 C 9.371094 -12.316406 10.683594 -11.757812 11.777344 -10.683594 C 12.851562 -9.589844 13.410156 -8.277344 13.410156 -6.746094 Z M 13.410156 -6.746094 "/></g></g></g><g fill="#b38c9f" fill-opacity="1"><g transform="translate(247.802931, 185.851775)"><g><path d="M 11.28125 -4.476562 L 11.28125 -13.527344 L 9.886719 -13.527344 L 9.886719 -4.277344 C 9.886719 -3.71875 9.789062 -3.261719 9.589844 -2.886719 C 9.011719 -1.769531 7.898438 -1.214844 6.246094 -1.214844 C 5.171875 -1.214844 4.316406 -1.453125 3.679688 -1.929688 C 2.945312 -2.46875 2.585938 -3.242188 2.585938 -4.277344 L 2.585938 -13.527344 L 1.195312 -13.527344 L 1.195312 -4.476562 C 1.195312 -3.003906 1.671875 -1.851562 2.625 -1.015625 C 3.523438 -0.21875 4.734375 0.179688 6.246094 0.179688 C 7.738281 0.179688 8.933594 -0.21875 9.847656 -1.015625 C 10.804688 -1.851562 11.28125 -3.003906 11.28125 -4.476562 Z M 11.28125 -4.476562 "/></g></g></g><g fill="#b38c9f" fill-opacity="1"><g transform="translate(275.564855, 185.851775)"><g><path d="M 2.886719 0 L 2.886719 -13.527344 L 1.492188 -13.527344 L 1.492188 0 Z M 2.886719 0 "/></g></g></g><g fill="#b38c9f" fill-opacity="1"><g transform="translate(295.229446, 185.851775)"><g><path d="M 2.886719 -1.394531 L 2.886719 -13.527344 L 1.492188 -13.527344 L 1.492188 0 L 7.71875 0 L 7.71875 -1.394531 Z M 2.886719 -1.394531 "/></g></g></g><g fill="#b38c9f" fill-opacity="1"><g transform="translate(318.634348, 185.851775)"><g><path d="M 9.53125 0 L 9.53125 -1.292969 L 2.886719 -1.292969 L 2.886719 -6.109375 L 9.332031 -6.109375 L 9.332031 -7.421875 L 2.886719 -7.421875 L 2.886719 -12.234375 L 9.53125 -12.234375 L 9.53125 -13.527344 L 1.492188 -13.527344 L 1.492188 0 Z M 9.53125 0 "/></g></g></g><g fill="#b38c9f" fill-opacity="1"><g transform="translate(344.943953, 185.851775)"><g><path d="M 5.234375 -6.367188 C 6.984375 -5.949219 8.175781 -5.492188 8.8125 -4.972656 C 9.25 -4.617188 9.46875 -4.160156 9.46875 -3.601562 C 9.46875 -3.042969 9.351562 -2.585938 9.113281 -2.269531 C 8.515625 -1.433594 7.441406 -1.015625 5.929688 -1.015625 C 3.820312 -1.015625 2.625 -1.730469 2.367188 -3.164062 L 0.734375 -3.164062 C 1.214844 -0.875 2.945312 0.257812 5.929688 0.257812 C 7.261719 0.257812 8.375 -0.0195312 9.269531 -0.617188 C 10.347656 -1.3125 10.902344 -2.347656 10.902344 -3.699219 C 10.902344 -4.816406 10.464844 -5.671875 9.589844 -6.265625 C 8.972656 -6.703125 7.976562 -7.101562 6.605469 -7.460938 C 5.210938 -7.820312 4.316406 -8.117188 3.898438 -8.335938 C 2.984375 -8.792969 2.527344 -9.429688 2.546875 -10.265625 C 2.546875 -10.703125 2.625 -11.082031 2.824219 -11.359375 C 3.34375 -12.136719 4.257812 -12.535156 5.570312 -12.535156 C 7.421875 -12.535156 8.476562 -11.9375 8.753906 -10.785156 L 10.265625 -10.785156 C 9.769531 -12.734375 8.195312 -13.726562 5.570312 -13.726562 C 4.378906 -13.726562 3.324219 -13.410156 2.445312 -12.773438 C 1.550781 -12.136719 1.09375 -11.203125 1.09375 -9.929688 C 1.09375 -8.195312 2.488281 -7.003906 5.234375 -6.367188 Z M 5.234375 -6.367188 "/></g></g></g><g fill="#b38c9f" fill-opacity="1"><g transform="translate(238.281961, 253.872621)"><g><path d="M 20.703125 -13.875 C 21.179688 -13.875 21.421875 -13.570312 21.421875 -12.96875 C 21.421875 -12.320312 21.160156 -11.71875 20.640625 -11.15625 C 19.722656 -10.132812 18.878906 -8.859375 18.109375 -7.328125 C 16.941406 -4.992188 16.359375 -2.894531 16.359375 -1.03125 C 16.359375 -0.300781 16.488281 0.226562 16.75 0.5625 C 17.007812 0.894531 17.304688 1.0625 17.640625 1.0625 C 18.640625 1.0625 19.804688 0.25 21.140625 -1.375 C 22.316406 -2.882812 23.21875 -4.359375 23.84375 -5.796875 C 24.007812 -6.128906 24.175781 -6.273438 24.34375 -6.234375 C 24.507812 -6.191406 24.519531 -6.003906 24.375 -5.671875 C 23.519531 -3.785156 22.554688 -2.125 21.484375 -0.6875 C 20.921875 0.0820312 20.222656 0.722656 19.390625 1.234375 C 18.554688 1.742188 17.726562 2 16.90625 2 C 16.082031 2 15.460938 1.671875 15.046875 1.015625 C 14.640625 0.359375 14.4375 -0.414062 14.4375 -1.3125 C 14.4375 -2.207031 14.546875 -3.085938 14.765625 -3.953125 C 14.984375 -4.828125 15.265625 -5.503906 15.609375 -5.984375 C 13.515625 -3.472656 11.285156 -1.457031 8.921875 0.0625 C 7.671875 0.832031 6.285156 1.289062 4.765625 1.4375 C 4.617188 1.457031 4.375 1.46875 4.03125 1.46875 C 3.6875 1.46875 3.28125 1.34375 2.8125 1.09375 C 1.3125 0.46875 0.5625 -1.050781 0.5625 -3.46875 C 0.5625 -5.894531 1.351562 -8.519531 2.9375 -11.34375 C 3.757812 -12.84375 4.671875 -14.164062 5.671875 -15.3125 C 4.273438 -15.96875 3.238281 -16.679688 2.5625 -17.453125 C 2.0625 -18.015625 1.8125 -18.691406 1.8125 -19.484375 C 1.8125 -20.273438 1.96875 -20.773438 2.28125 -20.984375 C 2.488281 -21.253906 2.675781 -21.304688 2.84375 -21.140625 C 2.96875 -20.953125 2.972656 -20.722656 2.859375 -20.453125 C 2.742188 -20.179688 2.6875 -19.921875 2.6875 -19.671875 C 2.6875 -19.109375 2.984375 -18.484375 3.578125 -17.796875 C 4.179688 -17.109375 5.066406 -16.492188 6.234375 -15.953125 C 11.117188 -21.378906 16.191406 -24.09375 21.453125 -24.09375 C 23.085938 -24.09375 24.390625 -23.722656 25.359375 -22.984375 C 26.328125 -22.242188 26.8125 -21.296875 26.8125 -20.140625 C 26.8125 -18.867188 26.101562 -17.640625 24.6875 -16.453125 C 23.976562 -15.835938 22.972656 -15.300781 21.671875 -14.84375 C 19.671875 -14.132812 17.289062 -13.78125 14.53125 -13.78125 C 11.78125 -13.78125 9.503906 -14.070312 7.703125 -14.65625 C 5.597656 -11.675781 4.148438 -9.203125 3.359375 -7.234375 C 2.578125 -5.273438 2.1875 -3.757812 2.1875 -2.6875 C 2.1875 -2.457031 2.195312 -2.25 2.21875 -2.0625 C 2.46875 -0.332031 3.335938 0.53125 4.828125 0.53125 C 6.515625 0.53125 8.46875 -0.382812 10.6875 -2.21875 C 12.269531 -3.539062 13.816406 -5.113281 15.328125 -6.9375 C 16.847656 -8.769531 17.976562 -10.382812 18.71875 -11.78125 C 19.457031 -13.175781 20.117188 -13.875 20.703125 -13.875 Z M 25.53125 -20.515625 C 25.53125 -21.398438 25.160156 -22.082031 24.421875 -22.5625 C 23.679688 -23.039062 22.664062 -23.28125 21.375 -23.28125 C 20.09375 -23.28125 18.8125 -23.070312 17.53125 -22.65625 C 16.25 -22.238281 15.050781 -21.625 13.9375 -20.8125 C 12.832031 -20.007812 11.847656 -19.179688 10.984375 -18.328125 C 10.117188 -17.472656 9.191406 -16.457031 8.203125 -15.28125 C 9.753906 -14.78125 11.664062 -14.53125 13.9375 -14.53125 C 18.195312 -14.53125 21.300781 -15.210938 23.25 -16.578125 C 24.769531 -17.640625 25.53125 -18.953125 25.53125 -20.515625 Z M 25.53125 -20.515625 "/></g></g></g><g fill="#b38c9f" fill-opacity="1"><g transform="translate(260.467761, 253.872621)"><g><path d="M 8.359375 -1.8125 C 8.359375 -1.144531 8.628906 -0.8125 9.171875 -0.8125 C 10.140625 -0.8125 11.4375 -2.441406 13.0625 -5.703125 C 13.125 -5.828125 13.179688 -5.953125 13.234375 -6.078125 C 13.285156 -6.203125 13.367188 -6.285156 13.484375 -6.328125 C 13.597656 -6.367188 13.675781 -6.34375 13.71875 -6.25 C 13.757812 -6.15625 13.738281 -6.003906 13.65625 -5.796875 C 11.988281 -1.929688 10.304688 0 8.609375 0 C 8.046875 0 7.597656 -0.25 7.265625 -0.75 C 6.929688 -1.25 6.765625 -1.742188 6.765625 -2.234375 C 6.765625 -2.722656 6.816406 -3.171875 6.921875 -3.578125 C 5.710938 -1.585938 4.671875 -0.457031 3.796875 -0.1875 C 3.546875 -0.0820312 3.300781 -0.03125 3.0625 -0.03125 C 2.832031 -0.03125 2.601562 -0.0625 2.375 -0.125 C 1.351562 -0.394531 0.84375 -1.207031 0.84375 -2.5625 C 0.84375 -3.46875 1.078125 -4.476562 1.546875 -5.59375 C 2.015625 -6.707031 2.671875 -7.769531 3.515625 -8.78125 C 4.367188 -9.800781 5.398438 -10.488281 6.609375 -10.84375 C 7.046875 -10.988281 7.5625 -11.0625 8.15625 -11.0625 C 8.75 -11.0625 9.40625 -10.875 10.125 -10.5 C 11.539062 -13.164062 12.75 -15.628906 13.75 -17.890625 C 14.039062 -18.578125 14.328125 -19.019531 14.609375 -19.21875 C 14.890625 -19.414062 15.144531 -19.515625 15.375 -19.515625 C 15.613281 -19.515625 15.757812 -19.515625 15.8125 -19.515625 C 15.863281 -19.515625 16.0625 -19.488281 16.40625 -19.4375 C 16.75 -19.382812 17.015625 -19.367188 17.203125 -19.390625 C 16.722656 -18.953125 15.457031 -16.832031 13.40625 -13.03125 C 10.78125 -8.164062 9.203125 -4.921875 8.671875 -3.296875 C 8.460938 -2.703125 8.359375 -2.207031 8.359375 -1.8125 Z M 9.875 -10 C 9.601562 -10.269531 9.222656 -10.40625 8.734375 -10.40625 C 8.253906 -10.40625 7.578125 -10.046875 6.703125 -9.328125 C 5.304688 -8.160156 4.148438 -6.722656 3.234375 -5.015625 C 2.640625 -3.890625 2.34375 -2.96875 2.34375 -2.25 C 2.34375 -1.914062 2.410156 -1.613281 2.546875 -1.34375 C 2.679688 -1.070312 2.890625 -0.9375 3.171875 -0.9375 C 3.878906 -0.9375 4.753906 -1.660156 5.796875 -3.109375 C 6.835938 -4.566406 8.195312 -6.863281 9.875 -10 Z M 9.875 -10 "/></g></g></g><g fill="#b38c9f" fill-opacity="1"><g transform="translate(271.903424, 253.872621)"><g><path d="M 10.0625 -10.875 L 9.90625 -10.3125 C 8.851562 -7.007812 7.878906 -4.601562 6.984375 -3.09375 C 5.671875 -0.882812 4.300781 0.21875 2.875 0.21875 C 1.707031 0.21875 1.125 -0.34375 1.125 -1.46875 C 1.125 -2.320312 1.4375 -3.640625 2.0625 -5.421875 C 1.851562 -5.085938 1.691406 -4.976562 1.578125 -5.09375 C 1.460938 -5.207031 1.4375 -5.347656 1.5 -5.515625 L 2.0625 -6.578125 C 2.457031 -7.390625 2.65625 -8.195312 2.65625 -9 C 2.65625 -9.8125 2.488281 -10.289062 2.15625 -10.4375 C 3.394531 -10.644531 4.117188 -10.742188 4.328125 -10.734375 C 4.535156 -10.722656 4.664062 -10.632812 4.71875 -10.46875 C 4.769531 -10.300781 4.796875 -10.113281 4.796875 -9.90625 C 4.796875 -8.644531 4.46875 -7.148438 3.8125 -5.421875 C 3.164062 -3.703125 2.84375 -2.546875 2.84375 -1.953125 C 2.84375 -1.359375 2.929688 -1.015625 3.109375 -0.921875 C 3.296875 -0.828125 3.484375 -0.78125 3.671875 -0.78125 C 4.210938 -0.78125 4.828125 -1.210938 5.515625 -2.078125 C 6.203125 -2.953125 6.890625 -4.242188 7.578125 -5.953125 C 7.285156 -6.617188 7.140625 -7.207031 7.140625 -7.71875 C 7.140625 -8.226562 7.203125 -8.679688 7.328125 -9.078125 C 7.703125 -10.253906 8.296875 -10.988281 9.109375 -11.28125 C 9.265625 -11.34375 9.414062 -11.375 9.5625 -11.375 C 9.894531 -11.375 10.0625 -11.207031 10.0625 -10.875 Z M 10.0625 -10.875 "/></g></g></g><g fill="#b38c9f" fill-opacity="1"><g transform="translate(280.067298, 253.872621)"><g><path d="M 7.453125 -10.90625 C 8.960938 -10.90625 9.71875 -9.953125 9.71875 -8.046875 C 9.71875 -7.171875 9.492188 -6.234375 9.046875 -5.234375 C 8.460938 -3.878906 7.585938 -2.65625 6.421875 -1.5625 C 6.691406 -1.039062 7.179688 -0.78125 7.890625 -0.78125 C 8.453125 -0.78125 8.976562 -1.0625 9.46875 -1.625 C 10.09375 -2.269531 10.539062 -2.832031 10.8125 -3.3125 C 11.082031 -3.800781 11.28125 -4.160156 11.40625 -4.390625 C 11.53125 -4.617188 11.691406 -4.945312 11.890625 -5.375 C 12.085938 -5.800781 12.207031 -6.0625 12.25 -6.15625 C 12.289062 -6.25 12.363281 -6.296875 12.46875 -6.296875 C 12.675781 -6.316406 12.78125 -6.242188 12.78125 -6.078125 C 12.78125 -6.015625 12.757812 -5.941406 12.71875 -5.859375 L 12.53125 -5.421875 C 12.40625 -5.128906 12.3125 -4.921875 12.25 -4.796875 C 12.1875 -4.671875 12.078125 -4.445312 11.921875 -4.125 C 11.765625 -3.800781 11.628906 -3.546875 11.515625 -3.359375 C 11.398438 -3.179688 11.242188 -2.9375 11.046875 -2.625 C 10.847656 -2.3125 10.671875 -2.0625 10.515625 -1.875 C 10.359375 -1.6875 10.164062 -1.476562 9.9375 -1.25 C 9.707031 -1.019531 9.492188 -0.84375 9.296875 -0.71875 C 8.773438 -0.40625 8.285156 -0.25 7.828125 -0.25 C 6.972656 -0.25 6.304688 -0.519531 5.828125 -1.0625 C 4.867188 -0.351562 3.984375 0 3.171875 0 C 1.660156 0 0.90625 -0.957031 0.90625 -2.875 C 0.90625 -3.738281 1.132812 -4.671875 1.59375 -5.671875 C 2.21875 -7.128906 3.09375 -8.363281 4.21875 -9.375 C 5.351562 -10.394531 6.429688 -10.90625 7.453125 -10.90625 Z M 7.796875 -9.9375 C 7.234375 -9.9375 6.566406 -9.5625 5.796875 -8.8125 C 5.023438 -8.070312 4.335938 -7.054688 3.734375 -5.765625 C 3.015625 -4.265625 2.65625 -3.035156 2.65625 -2.078125 C 2.65625 -1.128906 3.015625 -0.65625 3.734375 -0.65625 C 4.253906 -0.65625 4.835938 -0.9375 5.484375 -1.5 C 5.148438 -1.976562 4.984375 -2.488281 4.984375 -3.03125 C 5.023438 -3.914062 5.390625 -4.359375 6.078125 -4.359375 C 6.347656 -4.359375 6.570312 -4.265625 6.75 -4.078125 C 6.925781 -3.890625 7.015625 -3.71875 7.015625 -3.5625 C 7.015625 -3.40625 6.992188 -3.25 6.953125 -3.09375 C 7.304688 -3.601562 7.710938 -4.335938 8.171875 -5.296875 C 8.691406 -6.359375 8.953125 -7.394531 8.953125 -8.40625 C 8.953125 -9.425781 8.566406 -9.9375 7.796875 -9.9375 Z M 7.796875 -9.9375 "/></g></g></g><g fill="#b38c9f" fill-opacity="1"><g transform="translate(290.505842, 253.872621)"><g><path d="M -0.375 9.84375 C -2.320312 9.84375 -3.296875 9.046875 -3.296875 7.453125 C -3.296875 6.117188 -2.394531 4.921875 -0.59375 3.859375 C 0.945312 2.972656 2.910156 2.132812 5.296875 1.34375 C 6.398438 0.988281 7.203125 0.707031 7.703125 0.5 C 8.242188 -1.082031 8.515625 -2.804688 8.515625 -4.671875 C 8.515625 -5.046875 8.492188 -5.328125 8.453125 -5.515625 C 7.867188 -4.328125 7.066406 -3.113281 6.046875 -1.875 C 4.835938 -0.375 3.644531 0.207031 2.46875 -0.125 C 1.382812 -0.582031 0.84375 -1.476562 0.84375 -2.8125 C 0.84375 -4.59375 1.734375 -6.554688 3.515625 -8.703125 C 4.492188 -9.859375 5.640625 -10.59375 6.953125 -10.90625 C 7.304688 -11.007812 7.660156 -11.0625 8.015625 -11.0625 C 8.941406 -11.0625 9.851562 -10.75 10.75 -10.125 C 11.082031 -9.851562 11.25 -9.625 11.25 -9.4375 C 11.25 -9.257812 11.1875 -9.082031 11.0625 -8.90625 C 10.9375 -8.726562 10.804688 -8.707031 10.671875 -8.84375 C 10.535156 -8.976562 10.445312 -9.109375 10.40625 -9.234375 C 10.132812 -9.992188 9.703125 -10.375 9.109375 -10.375 C 8.003906 -10.375 6.765625 -9.609375 5.390625 -8.078125 C 4.617188 -7.203125 3.953125 -6.265625 3.390625 -5.265625 C 2.710938 -4.015625 2.375 -3.050781 2.375 -2.375 C 2.375 -1.707031 2.582031 -1.257812 3 -1.03125 C 3.132812 -0.96875 3.273438 -0.9375 3.421875 -0.9375 C 3.898438 -0.9375 4.5 -1.265625 5.21875 -1.921875 C 5.9375 -2.578125 6.601562 -3.40625 7.21875 -4.40625 C 7.832031 -5.414062 8.222656 -6.203125 8.390625 -6.765625 C 8.554688 -7.328125 8.753906 -7.679688 8.984375 -7.828125 C 9.222656 -7.972656 9.488281 -8.054688 9.78125 -8.078125 C 10.070312 -8.097656 10.269531 -8.148438 10.375 -8.234375 C 10.539062 -7.296875 10.625 -6.195312 10.625 -4.9375 C 10.625 -3.6875 10.40625 -2.257812 9.96875 -0.65625 C 10.925781 -1.34375 11.609375 -1.953125 12.015625 -2.484375 C 12.421875 -3.023438 12.742188 -3.515625 12.984375 -3.953125 C 13.222656 -4.390625 13.4375 -4.820312 13.625 -5.25 C 13.8125 -5.675781 13.9375 -5.953125 14 -6.078125 C 14.0625 -6.203125 14.164062 -6.28125 14.3125 -6.3125 C 14.457031 -6.34375 14.53125 -6.273438 14.53125 -6.109375 C 14.53125 -6.003906 14.5 -5.878906 14.4375 -5.734375 C 13.519531 -3.847656 12.753906 -2.484375 12.140625 -1.640625 C 11.523438 -0.796875 10.6875 -0.125 9.625 0.375 C 9.132812 1.789062 8.414062 3.191406 7.46875 4.578125 C 6.519531 5.972656 5.328125 7.195312 3.890625 8.25 C 2.460938 9.3125 1.039062 9.84375 -0.375 9.84375 Z M -2.65625 8.046875 C -2.65625 8.835938 -2.144531 9.234375 -1.125 9.234375 C -0.519531 9.234375 0.160156 9.054688 0.921875 8.703125 C 1.679688 8.347656 2.3125 7.984375 2.8125 7.609375 C 3.65625 6.921875 4.585938 5.898438 5.609375 4.546875 C 6.378906 3.472656 6.972656 2.425781 7.390625 1.40625 L 6.296875 1.78125 C 3.054688 2.894531 0.769531 3.890625 -0.5625 4.765625 C -1.539062 5.410156 -2.1875 6.234375 -2.5 7.234375 C -2.601562 7.546875 -2.65625 7.816406 -2.65625 8.046875 Z M -2.65625 8.046875 "/></g></g></g><g fill="#b38c9f" fill-opacity="1"><g transform="translate(302.720495, 253.872621)"><g><path d="M 11.25 -8.453125 C 10.875 -8.078125 10.34375 -7.226562 9.65625 -5.90625 C 8.976562 -4.582031 8.570312 -3.59375 8.4375 -2.9375 C 8.300781 -2.289062 8.234375 -1.765625 8.234375 -1.359375 C 8.234375 -0.953125 8.390625 -0.75 8.703125 -0.75 C 9.097656 -0.75 9.582031 -1.113281 10.15625 -1.84375 C 11.007812 -2.894531 11.851562 -4.273438 12.6875 -5.984375 C 12.769531 -6.171875 12.863281 -6.273438 12.96875 -6.296875 C 13.132812 -6.359375 13.21875 -6.296875 13.21875 -6.109375 C 13.21875 -6.003906 13.1875 -5.878906 13.125 -5.734375 C 11.207031 -1.867188 9.597656 0.0625 8.296875 0.0625 C 7.691406 0.0625 7.203125 -0.226562 6.828125 -0.8125 C 6.640625 -1.125 6.546875 -1.539062 6.546875 -2.0625 C 6.546875 -2.582031 6.648438 -3.210938 6.859375 -3.953125 C 5.191406 -1.273438 3.757812 0.0625 2.5625 0.0625 C 2.226562 0.0625 1.925781 -0.0390625 1.65625 -0.25 C 1.03125 -0.6875 0.71875 -1.4375 0.71875 -2.5 C 0.71875 -4.53125 1.597656 -6.597656 3.359375 -8.703125 C 4.359375 -9.859375 5.585938 -10.613281 7.046875 -10.96875 C 7.441406 -11.070312 7.816406 -11.125 8.171875 -11.125 C 9.117188 -11.125 9.925781 -10.789062 10.59375 -10.125 C 10.800781 -9.894531 10.863281 -9.675781 10.78125 -9.46875 C 10.695312 -9.269531 10.519531 -9.191406 10.25 -9.234375 C 10.019531 -9.972656 9.523438 -10.34375 8.765625 -10.34375 C 7.867188 -10.34375 6.765625 -9.640625 5.453125 -8.234375 C 4.703125 -7.398438 4.003906 -6.421875 3.359375 -5.296875 C 2.554688 -3.941406 2.15625 -2.859375 2.15625 -2.046875 C 2.15625 -1.242188 2.414062 -0.84375 2.9375 -0.84375 C 4.175781 -0.84375 5.804688 -2.753906 7.828125 -6.578125 C 8.222656 -7.347656 8.554688 -7.875 8.828125 -8.15625 C 9.097656 -8.4375 9.4375 -8.578125 9.84375 -8.578125 C 9.925781 -8.578125 10.140625 -8.546875 10.484375 -8.484375 C 10.828125 -8.421875 11.082031 -8.410156 11.25 -8.453125 Z M 11.25 -8.453125 "/></g></g></g><g fill="#b38c9f" fill-opacity="1"><g transform="translate(313.626434, 253.872621)"><g><path d="M 8.359375 -1.8125 C 8.359375 -1.144531 8.628906 -0.8125 9.171875 -0.8125 C 10.140625 -0.8125 11.4375 -2.441406 13.0625 -5.703125 C 13.125 -5.828125 13.179688 -5.953125 13.234375 -6.078125 C 13.285156 -6.203125 13.367188 -6.285156 13.484375 -6.328125 C 13.597656 -6.367188 13.675781 -6.34375 13.71875 -6.25 C 13.757812 -6.15625 13.738281 -6.003906 13.65625 -5.796875 C 11.988281 -1.929688 10.304688 0 8.609375 0 C 8.046875 0 7.597656 -0.25 7.265625 -0.75 C 6.929688 -1.25 6.765625 -1.742188 6.765625 -2.234375 C 6.765625 -2.722656 6.816406 -3.171875 6.921875 -3.578125 C 5.710938 -1.585938 4.671875 -0.457031 3.796875 -0.1875 C 3.546875 -0.0820312 3.300781 -0.03125 3.0625 -0.03125 C 2.832031 -0.03125 2.601562 -0.0625 2.375 -0.125 C 1.351562 -0.394531 0.84375 -1.207031 0.84375 -2.5625 C 0.84375 -3.46875 1.078125 -4.476562 1.546875 -5.59375 C 2.015625 -6.707031 2.671875 -7.769531 3.515625 -8.78125 C 4.367188 -9.800781 5.398438 -10.488281 6.609375 -10.84375 C 7.046875 -10.988281 7.5625 -11.0625 8.15625 -11.0625 C 8.75 -11.0625 9.40625 -10.875 10.125 -10.5 C 11.539062 -13.164062 12.75 -15.628906 13.75 -17.890625 C 14.039062 -18.578125 14.328125 -19.019531 14.609375 -19.21875 C 14.890625 -19.414062 15.144531 -19.515625 15.375 -19.515625 C 15.613281 -19.515625 15.757812 -19.515625 15.8125 -19.515625 C 15.863281 -19.515625 16.0625 -19.488281 16.40625 -19.4375 C 16.75 -19.382812 17.015625 -19.367188 17.203125 -19.390625 C 16.722656 -18.953125 15.457031 -16.832031 13.40625 -13.03125 C 10.78125 -8.164062 9.203125 -4.921875 8.671875 -3.296875 C 8.460938 -2.703125 8.359375 -2.207031 8.359375 -1.8125 Z M 9.875 -10 C 9.601562 -10.269531 9.222656 -10.40625 8.734375 -10.40625 C 8.253906 -10.40625 7.578125 -10.046875 6.703125 -9.328125 C 5.304688 -8.160156 4.148438 -6.722656 3.234375 -5.015625 C 2.640625 -3.890625 2.34375 -2.96875 2.34375 -2.25 C 2.34375 -1.914062 2.410156 -1.613281 2.546875 -1.34375 C 2.679688 -1.070312 2.890625 -0.9375 3.171875 -0.9375 C 3.878906 -0.9375 4.753906 -1.660156 5.796875 -3.109375 C 6.835938 -4.566406 8.195312 -6.863281 9.875 -10 Z M 9.875 -10 "/></g></g></g><g fill="#b38c9f" fill-opacity="1"><g transform="translate(325.062096, 253.872621)"><g><path d="M 11.25 -8.453125 C 10.875 -8.078125 10.34375 -7.226562 9.65625 -5.90625 C 8.976562 -4.582031 8.570312 -3.59375 8.4375 -2.9375 C 8.300781 -2.289062 8.234375 -1.765625 8.234375 -1.359375 C 8.234375 -0.953125 8.390625 -0.75 8.703125 -0.75 C 9.097656 -0.75 9.582031 -1.113281 10.15625 -1.84375 C 11.007812 -2.894531 11.851562 -4.273438 12.6875 -5.984375 C 12.769531 -6.171875 12.863281 -6.273438 12.96875 -6.296875 C 13.132812 -6.359375 13.21875 -6.296875 13.21875 -6.109375 C 13.21875 -6.003906 13.1875 -5.878906 13.125 -5.734375 C 11.207031 -1.867188 9.597656 0.0625 8.296875 0.0625 C 7.691406 0.0625 7.203125 -0.226562 6.828125 -0.8125 C 6.640625 -1.125 6.546875 -1.539062 6.546875 -2.0625 C 6.546875 -2.582031 6.648438 -3.210938 6.859375 -3.953125 C 5.191406 -1.273438 3.757812 0.0625 2.5625 0.0625 C 2.226562 0.0625 1.925781 -0.0390625 1.65625 -0.25 C 1.03125 -0.6875 0.71875 -1.4375 0.71875 -2.5 C 0.71875 -4.53125 1.597656 -6.597656 3.359375 -8.703125 C 4.359375 -9.859375 5.585938 -10.613281 7.046875 -10.96875 C 7.441406 -11.070312 7.816406 -11.125 8.171875 -11.125 C 9.117188 -11.125 9.925781 -10.789062 10.59375 -10.125 C 10.800781 -9.894531 10.863281 -9.675781 10.78125 -9.46875 C 10.695312 -9.269531 10.519531 -9.191406 10.25 -9.234375 C 10.019531 -9.972656 9.523438 -10.34375 8.765625 -10.34375 C 7.867188 -10.34375 6.765625 -9.640625 5.453125 -8.234375 C 4.703125 -7.398438 4.003906 -6.421875 3.359375 -5.296875 C 2.554688 -3.941406 2.15625 -2.859375 2.15625 -2.046875 C 2.15625 -1.242188 2.414062 -0.84375 2.9375 -0.84375 C 4.175781 -0.84375 5.804688 -2.753906 7.828125 -6.578125 C 8.222656 -7.347656 8.554688 -7.875 8.828125 -8.15625 C 9.097656 -8.4375 9.4375 -8.578125 9.84375 -8.578125 C 9.925781 -8.578125 10.140625 -8.546875 10.484375 -8.484375 C 10.828125 -8.421875 11.082031 -8.410156 11.25 -8.453125 Z M 11.25 -8.453125 "/></g></g></g><g fill="#b38c9f" fill-opacity="1"><g transform="translate(335.971683, 253.872621)"><g/></g></g><g fill="#b38c9f" fill-opacity="1"><g transform="translate(344.042083, 253.872621)"><g/></g></g></svg>