<svg xmlns="http://www.w3.org/2000/svg" xmlns:xlink="http://www.w3.org/1999/xlink" width="500" zoomAndPan="magnify" viewBox="0 0 375 374.999991" height="500" preserveAspectRatio="xMidYMid meet" version="1.0"><defs><g/><clipPath id="a70da29519"><path d="M 41 106 L 361 106 L 361 193 L 41 193 Z M 41 106 " clip-rule="nonzero"/></clipPath><clipPath id="7ce2f0c67e"><path d="M 52.253906 72.75 L 366.285156 156.242188 L 343.972656 240.164062 L 29.941406 156.671875 Z M 52.253906 72.75 " clip-rule="nonzero"/></clipPath><clipPath id="4ec9008968"><path d="M 52.253906 72.75 L 366.285156 156.242188 L 343.972656 240.164062 L 29.941406 156.671875 Z M 52.253906 72.75 " clip-rule="nonzero"/></clipPath></defs><g fill="#430d29" fill-opacity="1"><g transform="translate(322.120003, 90.372994)"><g><path d="M -17.847656 148.40625 L -77.261719 -2.550781 L -81.851562 -2.550781 L -139.734375 148.152344 C -148.152344 170.082031 -154.269531 173.90625 -160.644531 175.691406 L -160.644531 178.496094 L -132.851562 178.496094 L -132.851562 175.691406 C -141.777344 173.90625 -142.03125 164.46875 -135.910156 148.152344 L -84.914062 15.042969 L -32.640625 148.40625 C -24.222656 170.082031 -23.96875 173.90625 -31.109375 175.691406 L -31.109375 178.496094 L 1.019531 178.496094 L 1.019531 175.691406 C -4.078125 173.90625 -9.433594 170.082031 -17.847656 148.40625 Z M -17.847656 148.40625 "/></g></g></g><g fill="#430d29" fill-opacity="1"><g transform="translate(78.663904, 265.14128)"><g><path d="M 17.847656 -148.40625 L 77.261719 2.550781 L 81.851562 2.550781 L 139.734375 -148.152344 C 148.152344 -170.082031 154.269531 -173.90625 160.644531 -175.691406 L 160.644531 -178.496094 L 132.851562 -178.496094 L 132.851562 -175.691406 C 141.777344 -173.90625 142.03125 -164.46875 135.910156 -148.152344 L 84.914062 -15.042969 L 32.640625 -148.40625 C 24.222656 -170.082031 23.96875 -173.90625 31.109375 -175.691406 L 31.109375 -178.496094 L -1.019531 -178.496094 L -1.019531 -175.691406 C 4.078125 -173.90625 9.433594 -170.082031 17.847656 -148.40625 Z M 17.847656 -148.40625 "/></g></g></g><g clip-path="url(#a70da29519)"><g clip-path="url(#7ce2f0c67e)"><g clip-path="url(#4ec9008968)"><path fill="#b38c9f" d="M 357.367188 187.875 C 359.621094 181.199219 361.351562 173.582031 358.761719 166.761719 C 356.367188 160.40625 350.824219 156.160156 344.886719 153.371094 C 336.785156 149.566406 327.71875 147.917969 318.882812 146.90625 C 308.492188 145.714844 297.992188 145.523438 287.539062 145.753906 C 260.410156 146.347656 233.285156 149.617188 206.632812 154.8125 C 196.433594 156.800781 185.824219 158.425781 177.335938 164.992188 C 171.53125 169.480469 167.328125 178.128906 170.480469 185.390625 C 174.730469 195.175781 187.171875 194.445312 194.539062 188.894531 C 200.816406 184.160156 203.601562 176.28125 205.21875 168.847656 C 207 160.683594 207.085938 152.226562 206.234375 143.941406 C 205.84375 140.160156 205.25 136.414062 204.460938 132.699219 C 203.839844 129.761719 203.988281 127.355469 206.371094 125.203125 C 208.292969 123.464844 211.929688 121.628906 213.847656 124.296875 C 214.417969 125.085938 214.289062 125.664062 214.683594 126.378906 C 214.753906 126.507812 215.027344 128.105469 214.984375 126.699219 C 214.945312 125.449219 214.796875 126.828125 214.324219 127.449219 C 213.894531 128 213.425781 128.511719 212.914062 128.988281 C 210.808594 131.007812 208.402344 132.402344 205.769531 133.566406 C 202.234375 135.132812 198.613281 136.5 194.945312 137.714844 C 186.828125 140.410156 178.484375 142.394531 170.078125 143.90625 C 151.703125 147.1875 133.199219 148.386719 114.574219 147.5 C 98.441406 146.742188 81.78125 144.632812 66.691406 138.617188 C 56.648438 134.609375 45.027344 127.730469 43.167969 115.976562 C 42.71875 113.265625 42.851562 110.585938 43.566406 107.929688 C 44.242188 105.546875 43.796875 105.34375 43.105469 107.808594 C 40.136719 118.460938 42.667969 127.925781 51.332031 134.921875 C 62.15625 143.667969 76.917969 147.207031 90.328125 149.410156 C 107.867188 152.289062 125.855469 152.632812 143.574219 151.339844 C 160.878906 150.078125 178.316406 147.265625 194.804688 141.65625 C 201.707031 139.308594 211.824219 136.484375 214.824219 129.019531 C 215.835938 126.507812 216.675781 123.203125 215.359375 120.664062 C 212.617188 115.394531 206.246094 121.511719 204.734375 124.726562 C 201.300781 132.046875 204.003906 139.089844 204.871094 146.617188 C 205.929688 155.777344 206.546875 166.507812 202.820312 175.164062 C 199.382812 183.148438 191.1875 189.835938 182.125 188.742188 C 176.828125 188.101562 172.113281 184.328125 170.9375 178.988281 C 169.632812 173.054688 176.386719 168.703125 180.832031 166.230469 C 190.042969 161.101562 201.515625 159.765625 211.730469 157.902344 C 225.84375 155.324219 240.046875 153.347656 254.335938 151.964844 C 276.242188 149.875 298.796875 148.578125 320.667969 151.53125 C 334.078125 153.34375 354.570312 157.488281 358.28125 173.214844 C 359.253906 177.335938 358.886719 181.621094 357.539062 185.613281 C 357.289062 186.351562 356.507812 190.417969 357.367188 187.863281 Z M 357.367188 187.875 " fill-opacity="1" fill-rule="nonzero"/></g></g></g></svg>