<svg xmlns="http://www.w3.org/2000/svg" xmlns:xlink="http://www.w3.org/1999/xlink" width="500" zoomAndPan="magnify" viewBox="0 0 375 374.999991" height="500" preserveAspectRatio="xMidYMid meet" version="1.0"><defs><g/><clipPath id="418da2902c"><path d="M 157.660156 101.515625 L 227.410156 101.515625 L 227.410156 126 L 157.660156 126 Z M 157.660156 101.515625 " clip-rule="nonzero"/></clipPath><clipPath id="594d066265"><path d="M 157.660156 145 L 227.410156 145 L 227.410156 171.265625 L 157.660156 171.265625 Z M 157.660156 145 " clip-rule="nonzero"/></clipPath><clipPath id="630ff44370"><path d="M 150 121 L 236 121 L 236 145 L 150 145 Z M 150 121 " clip-rule="nonzero"/></clipPath><clipPath id="7c7c61777b"><path d="M 153.53125 112.816406 L 237.609375 135.171875 L 231.636719 157.640625 L 147.558594 135.285156 Z M 153.53125 112.816406 " clip-rule="nonzero"/></clipPath><clipPath id="42cf0c3027"><path d="M 153.53125 112.816406 L 237.609375 135.171875 L 231.636719 157.640625 L 147.558594 135.285156 Z M 153.53125 112.816406 " clip-rule="nonzero"/></clipPath></defs><g fill="#ccbeaa" fill-opacity="1"><g transform="translate(224.965067, 117.534967)"><g><path d="M -4.777344 39.734375 L -20.6875 -0.683594 L -21.914062 -0.683594 L -37.414062 39.667969 C -39.667969 45.539062 -41.304688 46.5625 -43.011719 47.039062 L -43.011719 47.789062 L -35.570312 47.789062 L -35.570312 47.039062 C -37.960938 46.5625 -38.027344 44.035156 -36.390625 39.667969 L -22.734375 4.027344 L -8.738281 39.734375 C -6.484375 45.539062 -6.417969 46.5625 -8.328125 47.039062 L -8.328125 47.789062 L 0.273438 47.789062 L 0.273438 47.039062 C -1.09375 46.5625 -2.527344 45.539062 -4.777344 39.734375 Z M -4.777344 39.734375 "/></g></g></g><g fill="#a6a6a6" fill-opacity="1"><g transform="translate(159.553909, 211.965279)"><g><path d="M 2.765625 -6.6875 L 2.953125 -6.6875 L 5.421875 0 L 4.671875 0 L 4.0625 -1.703125 L 1.609375 -1.703125 L 1 0 L 0.296875 0 Z M 3.84375 -2.328125 L 2.84375 -5.140625 L 1.828125 -2.328125 Z M 3.84375 -2.328125 "/></g></g></g><g fill="#a6a6a6" fill-opacity="1"><g transform="translate(167.424656, 211.965279)"><g><path d="M 0.875 -6.484375 L 3 -6.484375 C 3.488281 -6.484375 3.941406 -6.398438 4.359375 -6.234375 C 4.785156 -6.078125 5.148438 -5.851562 5.453125 -5.5625 C 5.765625 -5.28125 6.003906 -4.9375 6.171875 -4.53125 C 6.347656 -4.132812 6.4375 -3.707031 6.4375 -3.25 C 6.4375 -2.78125 6.347656 -2.347656 6.171875 -1.953125 C 6.003906 -1.554688 5.765625 -1.210938 5.453125 -0.921875 C 5.148438 -0.640625 4.785156 -0.414062 4.359375 -0.25 C 3.941406 -0.0820312 3.488281 0 3 0 L 0.875 0 Z M 2.984375 -0.625 C 3.378906 -0.625 3.742188 -0.6875 4.078125 -0.8125 C 4.410156 -0.945312 4.695312 -1.128906 4.9375 -1.359375 C 5.1875 -1.597656 5.378906 -1.875 5.515625 -2.1875 C 5.648438 -2.507812 5.71875 -2.863281 5.71875 -3.25 C 5.71875 -3.625 5.648438 -3.972656 5.515625 -4.296875 C 5.378906 -4.617188 5.1875 -4.894531 4.9375 -5.125 C 4.695312 -5.351562 4.410156 -5.53125 4.078125 -5.65625 C 3.742188 -5.789062 3.378906 -5.859375 2.984375 -5.859375 L 1.546875 -5.859375 L 1.546875 -0.625 Z M 2.984375 -0.625 "/></g></g></g><g fill="#a6a6a6" fill-opacity="1"><g transform="translate(176.505363, 211.965279)"><g><path d="M 0.296875 -6.484375 L 1 -6.484375 L 2.78125 -1.421875 L 4.65625 -6.484375 L 5.328125 -6.484375 L 2.84375 0.1875 L 2.640625 0.1875 Z M 0.296875 -6.484375 "/></g></g></g><g fill="#a6a6a6" fill-opacity="1"><g transform="translate(184.279303, 211.965279)"><g><path d="M 3.734375 0.09375 C 3.285156 0.09375 2.863281 0.0078125 2.46875 -0.15625 C 2.070312 -0.332031 1.726562 -0.570312 1.4375 -0.875 C 1.144531 -1.1875 0.910156 -1.539062 0.734375 -1.9375 C 0.566406 -2.34375 0.484375 -2.78125 0.484375 -3.25 C 0.484375 -3.707031 0.566406 -4.140625 0.734375 -4.546875 C 0.910156 -4.953125 1.144531 -5.304688 1.4375 -5.609375 C 1.726562 -5.910156 2.070312 -6.148438 2.46875 -6.328125 C 2.863281 -6.503906 3.285156 -6.59375 3.734375 -6.59375 C 4.171875 -6.59375 4.585938 -6.503906 4.984375 -6.328125 C 5.378906 -6.148438 5.722656 -5.910156 6.015625 -5.609375 C 6.316406 -5.304688 6.550781 -4.953125 6.71875 -4.546875 C 6.882812 -4.140625 6.96875 -3.707031 6.96875 -3.25 C 6.96875 -2.789062 6.882812 -2.359375 6.71875 -1.953125 C 6.550781 -1.546875 6.316406 -1.191406 6.015625 -0.890625 C 5.722656 -0.585938 5.378906 -0.347656 4.984375 -0.171875 C 4.585938 0.00390625 4.171875 0.09375 3.734375 0.09375 Z M 3.734375 -0.578125 C 4.085938 -0.578125 4.414062 -0.644531 4.71875 -0.78125 C 5.03125 -0.914062 5.296875 -1.097656 5.515625 -1.328125 C 5.742188 -1.566406 5.921875 -1.847656 6.046875 -2.171875 C 6.179688 -2.503906 6.25 -2.863281 6.25 -3.25 C 6.25 -3.625 6.179688 -3.972656 6.046875 -4.296875 C 5.921875 -4.628906 5.742188 -4.914062 5.515625 -5.15625 C 5.296875 -5.394531 5.03125 -5.582031 4.71875 -5.71875 C 4.414062 -5.851562 4.085938 -5.921875 3.734375 -5.921875 C 3.367188 -5.921875 3.03125 -5.851562 2.71875 -5.71875 C 2.414062 -5.582031 2.148438 -5.394531 1.921875 -5.15625 C 1.703125 -4.914062 1.523438 -4.628906 1.390625 -4.296875 C 1.265625 -3.972656 1.203125 -3.625 1.203125 -3.25 C 1.203125 -2.863281 1.265625 -2.503906 1.390625 -2.171875 C 1.523438 -1.847656 1.703125 -1.566406 1.921875 -1.328125 C 2.148438 -1.097656 2.414062 -0.914062 2.71875 -0.78125 C 3.03125 -0.644531 3.367188 -0.578125 3.734375 -0.578125 Z M 3.734375 -0.578125 "/></g></g></g><g fill="#a6a6a6" fill-opacity="1"><g transform="translate(193.892402, 211.965279)"><g><path d="M 3.703125 0.09375 C 3.253906 0.09375 2.832031 0.0078125 2.4375 -0.15625 C 2.050781 -0.332031 1.710938 -0.566406 1.421875 -0.859375 C 1.128906 -1.160156 0.898438 -1.507812 0.734375 -1.90625 C 0.566406 -2.3125 0.484375 -2.75 0.484375 -3.21875 C 0.484375 -3.675781 0.566406 -4.109375 0.734375 -4.515625 C 0.910156 -4.929688 1.144531 -5.289062 1.4375 -5.59375 C 1.726562 -5.90625 2.070312 -6.148438 2.46875 -6.328125 C 2.863281 -6.503906 3.285156 -6.59375 3.734375 -6.59375 C 4.210938 -6.59375 4.660156 -6.488281 5.078125 -6.28125 C 5.503906 -6.082031 5.867188 -5.804688 6.171875 -5.453125 L 5.65625 -5.015625 C 5.40625 -5.304688 5.113281 -5.53125 4.78125 -5.6875 C 4.445312 -5.84375 4.09375 -5.921875 3.71875 -5.921875 C 3.351562 -5.921875 3.019531 -5.851562 2.71875 -5.71875 C 2.414062 -5.582031 2.148438 -5.394531 1.921875 -5.15625 C 1.703125 -4.914062 1.523438 -4.628906 1.390625 -4.296875 C 1.265625 -3.972656 1.203125 -3.625 1.203125 -3.25 C 1.203125 -2.863281 1.265625 -2.503906 1.390625 -2.171875 C 1.523438 -1.847656 1.703125 -1.566406 1.921875 -1.328125 C 2.148438 -1.097656 2.421875 -0.914062 2.734375 -0.78125 C 3.046875 -0.644531 3.378906 -0.578125 3.734375 -0.578125 C 4.140625 -0.578125 4.507812 -0.65625 4.84375 -0.8125 C 5.175781 -0.976562 5.457031 -1.195312 5.6875 -1.46875 L 5.6875 -2.859375 L 3.734375 -2.859375 L 3.734375 -3.484375 L 6.359375 -3.484375 L 6.359375 -1.34375 C 6.046875 -0.882812 5.65625 -0.53125 5.1875 -0.28125 C 4.726562 -0.03125 4.234375 0.09375 3.703125 0.09375 Z M 3.703125 0.09375 "/></g></g></g><g fill="#a6a6a6" fill-opacity="1"><g transform="translate(203.040872, 211.965279)"><g><path d="M 2.765625 -6.6875 L 2.953125 -6.6875 L 5.421875 0 L 4.671875 0 L 4.0625 -1.703125 L 1.609375 -1.703125 L 1 0 L 0.296875 0 Z M 3.84375 -2.328125 L 2.84375 -5.140625 L 1.828125 -2.328125 Z M 3.84375 -2.328125 "/></g></g></g><g fill="#a6a6a6" fill-opacity="1"><g transform="translate(210.91162, 211.965279)"><g><path d="M 0.875 -6.484375 L 3 -6.484375 C 3.488281 -6.484375 3.941406 -6.398438 4.359375 -6.234375 C 4.785156 -6.078125 5.148438 -5.851562 5.453125 -5.5625 C 5.765625 -5.28125 6.003906 -4.9375 6.171875 -4.53125 C 6.347656 -4.132812 6.4375 -3.707031 6.4375 -3.25 C 6.4375 -2.78125 6.347656 -2.347656 6.171875 -1.953125 C 6.003906 -1.554688 5.765625 -1.210938 5.453125 -0.921875 C 5.148438 -0.640625 4.785156 -0.414062 4.359375 -0.25 C 3.941406 -0.0820312 3.488281 0 3 0 L 0.875 0 Z M 2.984375 -0.625 C 3.378906 -0.625 3.742188 -0.6875 4.078125 -0.8125 C 4.410156 -0.945312 4.695312 -1.128906 4.9375 -1.359375 C 5.1875 -1.597656 5.378906 -1.875 5.515625 -2.1875 C 5.648438 -2.507812 5.71875 -2.863281 5.71875 -3.25 C 5.71875 -3.625 5.648438 -3.972656 5.515625 -4.296875 C 5.378906 -4.617188 5.1875 -4.894531 4.9375 -5.125 C 4.695312 -5.351562 4.410156 -5.53125 4.078125 -5.65625 C 3.742188 -5.789062 3.378906 -5.859375 2.984375 -5.859375 L 1.546875 -5.859375 L 1.546875 -0.625 Z M 2.984375 -0.625 "/></g></g></g><g fill="#a6a6a6" fill-opacity="1"><g transform="translate(219.992329, 211.965279)"><g><path d="M 2.765625 -6.6875 L 2.953125 -6.6875 L 5.421875 0 L 4.671875 0 L 4.0625 -1.703125 L 1.609375 -1.703125 L 1 0 L 0.296875 0 Z M 3.84375 -2.328125 L 2.84375 -5.140625 L 1.828125 -2.328125 Z M 3.84375 -2.328125 "/></g></g></g><g fill="#ccbeaa" fill-opacity="1"><g transform="translate(159.781458, 164.327905)"><g><path d="M 4.777344 -39.734375 L 20.6875 0.683594 L 21.914062 0.683594 L 37.414062 -39.667969 C 39.667969 -45.539062 41.304688 -46.5625 43.011719 -47.039062 L 43.011719 -47.789062 L 35.570312 -47.789062 L 35.570312 -47.039062 C 37.960938 -46.5625 38.027344 -44.035156 36.390625 -39.667969 L 22.734375 -4.027344 L 8.738281 -39.734375 C 6.484375 -45.539062 6.417969 -46.5625 8.328125 -47.039062 L 8.328125 -47.789062 L -0.273438 -47.789062 L -0.273438 -47.039062 C 1.09375 -46.5625 2.527344 -45.539062 4.777344 -39.734375 Z M 4.777344 -39.734375 "/></g></g></g><g clip-path="url(#418da2902c)"><path fill="#a6a6a6" d="M 227.410156 125.378906 L 226.128906 125.378906 L 226.128906 102.792969 L 158.941406 102.792969 L 158.941406 125.378906 L 157.660156 125.378906 L 157.660156 101.515625 L 227.410156 101.515625 L 227.410156 125.378906 " fill-opacity="1" fill-rule="nonzero"/></g><g clip-path="url(#594d066265)"><path fill="#a6a6a6" d="M 227.410156 171.265625 L 157.660156 171.265625 L 157.660156 145.398438 L 158.941406 145.398438 L 158.941406 169.984375 L 226.128906 169.984375 L 226.128906 145.398438 L 227.410156 145.398438 L 227.410156 171.265625 " fill-opacity="1" fill-rule="nonzero"/></g><g clip-path="url(#630ff44370)"><g clip-path="url(#7c7c61777b)"><g clip-path="url(#42cf0c3027)"><path fill="#a6a6a6" d="M 235.222656 143.640625 C 235.828125 141.851562 236.289062 139.8125 235.597656 137.988281 C 234.953125 136.285156 233.472656 135.148438 231.882812 134.402344 C 229.710938 133.382812 227.285156 132.941406 224.917969 132.671875 C 222.136719 132.351562 219.324219 132.300781 216.527344 132.363281 C 209.261719 132.519531 202 133.398438 194.863281 134.789062 C 192.132812 135.320312 189.292969 135.753906 187.019531 137.511719 C 185.464844 138.714844 184.339844 141.03125 185.183594 142.976562 C 186.324219 145.59375 189.652344 145.398438 191.625 143.914062 C 193.308594 142.644531 194.054688 140.535156 194.484375 138.546875 C 194.964844 136.359375 194.984375 134.097656 194.757812 131.878906 C 194.652344 130.867188 194.496094 129.863281 194.28125 128.867188 C 194.117188 128.082031 194.15625 127.4375 194.792969 126.859375 C 195.308594 126.394531 196.28125 125.902344 196.796875 126.617188 C 196.949219 126.828125 196.914062 126.984375 197.019531 127.175781 C 197.039062 127.210938 197.113281 127.636719 197.101562 127.261719 C 197.089844 126.925781 197.050781 127.296875 196.921875 127.460938 C 196.808594 127.609375 196.683594 127.746094 196.546875 127.875 C 195.984375 128.414062 195.339844 128.789062 194.632812 129.101562 C 193.6875 129.519531 192.71875 129.882812 191.734375 130.210938 C 189.5625 130.933594 187.328125 131.464844 185.078125 131.867188 C 180.15625 132.746094 175.203125 133.066406 170.214844 132.828125 C 165.898438 132.628906 161.4375 132.0625 157.394531 130.453125 C 154.707031 129.378906 151.597656 127.539062 151.097656 124.390625 C 150.976562 123.664062 151.015625 122.945312 151.203125 122.234375 C 151.386719 121.597656 151.265625 121.542969 151.082031 122.203125 C 150.285156 125.054688 150.964844 127.589844 153.285156 129.460938 C 156.179688 131.804688 160.132812 132.75 163.726562 133.339844 C 168.421875 134.113281 173.238281 134.203125 177.980469 133.859375 C 182.613281 133.519531 187.285156 132.769531 191.699219 131.265625 C 193.546875 130.636719 196.253906 129.882812 197.058594 127.882812 C 197.328125 127.210938 197.554688 126.324219 197.199219 125.644531 C 196.464844 124.234375 194.761719 125.871094 194.355469 126.734375 C 193.4375 128.691406 194.160156 130.578125 194.394531 132.59375 C 194.675781 135.046875 194.839844 137.917969 193.84375 140.238281 C 192.921875 142.375 190.730469 144.164062 188.304688 143.871094 C 186.886719 143.699219 185.621094 142.691406 185.308594 141.261719 C 184.957031 139.671875 186.765625 138.507812 187.957031 137.84375 C 190.421875 136.472656 193.492188 136.113281 196.230469 135.617188 C 200.007812 134.925781 203.8125 134.394531 207.636719 134.027344 C 213.503906 133.464844 219.539062 133.117188 225.398438 133.910156 C 228.988281 134.394531 234.472656 135.503906 235.46875 139.714844 C 235.726562 140.816406 235.628906 141.964844 235.269531 143.035156 C 235.203125 143.230469 234.992188 144.320312 235.222656 143.636719 Z M 235.222656 143.640625 " fill-opacity="1" fill-rule="nonzero"/></g></g></g><path stroke-linecap="round" transform="matrix(0.752268, 0, 0, 0.75, 227.610386, 208.965279)" fill="none" stroke-linejoin="miter" d="M 1.000834 0.99942 L 55.829802 0.99942 " stroke="#ccbeaa" stroke-width="2" stroke-opacity="1" stroke-miterlimit="4"/><path stroke-linecap="round" transform="matrix(0.752268, 0, 0, 0.75, 115.038739, 209.715279)" fill="none" stroke-linejoin="miter" d="M 0.997415 0.99942 L 55.826383 0.99942 " stroke="#ccbeaa" stroke-width="2" stroke-opacity="1" stroke-miterlimit="4"/><g fill="#a6a6a6" fill-opacity="1"><g transform="translate(116.313211, 196.96528)"><g><path d="M 16.46875 2.875 C 16.289062 2.875 16.113281 2.851562 15.9375 2.8125 C 14.96875 2.632812 14.484375 1.785156 14.484375 0.265625 C 14.484375 -2.191406 15.726562 -6.378906 18.21875 -12.296875 C 19.175781 -14.535156 19.882812 -16.71875 20.34375 -18.84375 C 20.519531 -19.65625 20.609375 -20.304688 20.609375 -20.796875 C 20.609375 -21.296875 20.585938 -21.679688 20.546875 -21.953125 C 20.453125 -22.835938 20.125 -23.453125 19.5625 -23.796875 C 18.5625 -24.328125 17.441406 -24.59375 16.203125 -24.59375 C 14.898438 -24.59375 13.53125 -24.273438 12.09375 -23.640625 C 10.65625 -23.003906 9.300781 -22.222656 8.03125 -21.296875 C 6.757812 -20.378906 5.601562 -19.285156 4.5625 -18.015625 C 3.519531 -16.742188 2.742188 -15.410156 2.234375 -14.015625 C 1.722656 -12.628906 1.46875 -11.378906 1.46875 -10.265625 C 1.46875 -9.796875 1.507812 -9.351562 1.59375 -8.9375 C 1.914062 -7.5625 2.515625 -6.53125 3.390625 -5.84375 C 4.273438 -5.164062 5.316406 -4.828125 6.515625 -4.828125 C 8.191406 -4.828125 9.765625 -5.566406 11.234375 -7.046875 C 12.703125 -8.523438 13.4375 -10.097656 13.4375 -11.765625 C 13.4375 -12.660156 13.253906 -13.304688 12.890625 -13.703125 C 12.535156 -14.109375 12.164062 -14.3125 11.78125 -14.3125 C 11.40625 -14.3125 11.023438 -14.253906 10.640625 -14.140625 C 10.265625 -14.035156 10.078125 -14.046875 10.078125 -14.171875 C 10.078125 -14.304688 10.304688 -14.476562 10.765625 -14.6875 C 11.234375 -14.894531 11.71875 -15 12.21875 -15 C 12.71875 -15 13.175781 -14.847656 13.59375 -14.546875 C 14.375 -13.953125 14.765625 -13.039062 14.765625 -11.8125 C 14.765625 -10.59375 14.296875 -9.367188 13.359375 -8.140625 C 12.429688 -6.910156 11.285156 -5.921875 9.921875 -5.171875 C 8.566406 -4.421875 7.222656 -4.046875 5.890625 -4.046875 C 4.566406 -4.046875 3.332031 -4.53125 2.1875 -5.5 C 1.050781 -6.46875 0.289062 -7.773438 -0.09375 -9.421875 C -0.1875 -9.898438 -0.234375 -10.410156 -0.234375 -10.953125 C -0.234375 -12.210938 0.0703125 -13.582031 0.6875 -15.0625 C 1.3125 -16.539062 2.207031 -17.914062 3.375 -19.1875 C 4.539062 -20.457031 5.804688 -21.515625 7.171875 -22.359375 C 8.535156 -23.210938 9.972656 -23.921875 11.484375 -24.484375 C 13.003906 -25.054688 14.4375 -25.34375 15.78125 -25.34375 C 17.125 -25.34375 18.34375 -25.132812 19.4375 -24.71875 C 21.375 -23.875 22.34375 -22.09375 22.34375 -19.375 C 22.34375 -17.375 21.625 -14.894531 20.1875 -11.9375 C 19.289062 -10.101562 18.492188 -8.125 17.796875 -6 C 16.753906 -2.863281 16.234375 -0.679688 16.234375 0.546875 C 16.234375 1.460938 16.539062 1.921875 17.15625 1.921875 C 18.394531 1.921875 20.566406 0.3125 23.671875 -2.90625 C 25.847656 -5.164062 27.554688 -7.644531 28.796875 -10.34375 C 29.597656 -12.070312 30 -13.65625 30 -15.09375 C 30 -15.851562 29.9375 -16.382812 29.8125 -16.6875 C 29.695312 -17 29.617188 -17.203125 29.578125 -17.296875 C 29.535156 -17.390625 29.453125 -17.46875 29.328125 -17.53125 C 29.210938 -17.601562 29.132812 -17.640625 29.09375 -17.640625 C 28.820312 -17.722656 28.535156 -17.785156 28.234375 -17.828125 C 27.929688 -17.878906 27.753906 -18.015625 27.703125 -18.234375 C 27.648438 -18.453125 27.753906 -18.582031 28.015625 -18.625 L 28.59375 -18.5625 C 29.507812 -18.3125 30.304688 -17.664062 30.984375 -16.625 C 31.367188 -16.039062 31.5625 -15.34375 31.5625 -14.53125 C 31.5625 -13.71875 31.367188 -12.765625 30.984375 -11.671875 C 30.066406 -9.234375 28.644531 -6.828125 26.71875 -4.453125 C 24.800781 -2.085938 22.90625 -0.273438 21.03125 0.984375 C 19.164062 2.242188 17.644531 2.875 16.46875 2.875 Z M 16.46875 2.875 "/></g></g></g><g fill="#a6a6a6" fill-opacity="1"><g transform="translate(145.563186, 196.96528)"><g><path d="M 5.8125 -11.671875 C 5.539062 -11.429688 5.234375 -11.3125 4.890625 -11.3125 C 4.546875 -11.3125 4.273438 -11.429688 4.078125 -11.671875 C 3.878906 -11.910156 3.800781 -12.203125 3.84375 -12.546875 C 3.90625 -12.878906 4.070312 -13.164062 4.34375 -13.40625 C 4.625 -13.644531 4.9375 -13.765625 5.28125 -13.765625 C 5.625 -13.765625 5.898438 -13.644531 6.109375 -13.40625 C 6.316406 -13.164062 6.390625 -12.875 6.328125 -12.53125 C 6.265625 -12.195312 6.09375 -11.910156 5.8125 -11.671875 Z M 2.875 -0.65625 C 3.257812 -0.65625 3.660156 -0.847656 4.078125 -1.234375 C 4.816406 -1.972656 5.757812 -3.484375 6.90625 -5.765625 C 7.039062 -6.054688 7.175781 -6.144531 7.3125 -6.03125 C 7.351562 -5.988281 7.375 -5.921875 7.375 -5.828125 C 7.375 -5.742188 7.296875 -5.523438 7.140625 -5.171875 C 6.984375 -4.828125 6.835938 -4.515625 6.703125 -4.234375 C 6.578125 -3.953125 6.328125 -3.492188 5.953125 -2.859375 C 5.585938 -2.234375 5.253906 -1.75 4.953125 -1.40625 C 4.128906 -0.46875 3.351562 0 2.625 0 C 1.894531 0 1.367188 -0.21875 1.046875 -0.65625 C 0.722656 -1.09375 0.5625 -1.582031 0.5625 -2.125 C 0.5625 -2.664062 0.691406 -3.257812 0.953125 -3.90625 L 2.875 -8.796875 C 2.914062 -8.910156 2.9375 -9.066406 2.9375 -9.265625 C 2.9375 -9.460938 2.816406 -9.722656 2.578125 -10.046875 L 4.234375 -10.078125 C 4.691406 -10.078125 4.957031 -9.988281 5.03125 -9.8125 C 5.113281 -9.644531 5.054688 -9.382812 4.859375 -9.03125 L 2.453125 -3.421875 C 2.117188 -2.679688 1.953125 -2.050781 1.953125 -1.53125 C 1.953125 -0.945312 2.257812 -0.65625 2.875 -0.65625 Z M 2.875 -0.65625 "/></g></g></g><g fill="#a6a6a6" fill-opacity="1"><g transform="translate(150.783179, 196.96528)"><g><path d="M 9.6875 -10.46875 L 9.546875 -9.9375 C 8.523438 -6.75 7.582031 -4.425781 6.71875 -2.96875 C 5.457031 -0.851562 4.140625 0.203125 2.765625 0.203125 C 1.640625 0.203125 1.078125 -0.332031 1.078125 -1.40625 C 1.078125 -2.226562 1.378906 -3.5 1.984375 -5.21875 C 1.785156 -4.894531 1.628906 -4.785156 1.515625 -4.890625 C 1.398438 -5.003906 1.375 -5.144531 1.4375 -5.3125 L 1.984375 -6.328125 C 2.359375 -7.109375 2.546875 -7.890625 2.546875 -8.671875 C 2.546875 -9.453125 2.382812 -9.910156 2.0625 -10.046875 C 3.269531 -10.242188 3.972656 -10.335938 4.171875 -10.328125 C 4.367188 -10.316406 4.492188 -10.234375 4.546875 -10.078125 C 4.597656 -9.921875 4.625 -9.742188 4.625 -9.546875 C 4.625 -8.316406 4.304688 -6.875 3.671875 -5.21875 C 3.046875 -3.5625 2.734375 -2.445312 2.734375 -1.875 C 2.734375 -1.300781 2.820312 -0.96875 3 -0.875 C 3.175781 -0.789062 3.359375 -0.75 3.546875 -0.75 C 4.054688 -0.75 4.640625 -1.164062 5.296875 -2 C 5.960938 -2.84375 6.628906 -4.085938 7.296875 -5.734375 C 7.015625 -6.367188 6.875 -6.929688 6.875 -7.421875 C 6.875 -7.910156 6.929688 -8.347656 7.046875 -8.734375 C 7.410156 -9.867188 7.984375 -10.578125 8.765625 -10.859375 C 8.921875 -10.921875 9.066406 -10.953125 9.203125 -10.953125 C 9.523438 -10.953125 9.6875 -10.789062 9.6875 -10.46875 Z M 9.6875 -10.46875 "/></g></g></g><g fill="#a6a6a6" fill-opacity="1"><g transform="translate(158.643176, 196.96528)"><g><path d="M 5.8125 -11.671875 C 5.539062 -11.429688 5.234375 -11.3125 4.890625 -11.3125 C 4.546875 -11.3125 4.273438 -11.429688 4.078125 -11.671875 C 3.878906 -11.910156 3.800781 -12.203125 3.84375 -12.546875 C 3.90625 -12.878906 4.070312 -13.164062 4.34375 -13.40625 C 4.625 -13.644531 4.9375 -13.765625 5.28125 -13.765625 C 5.625 -13.765625 5.898438 -13.644531 6.109375 -13.40625 C 6.316406 -13.164062 6.390625 -12.875 6.328125 -12.53125 C 6.265625 -12.195312 6.09375 -11.910156 5.8125 -11.671875 Z M 2.875 -0.65625 C 3.257812 -0.65625 3.660156 -0.847656 4.078125 -1.234375 C 4.816406 -1.972656 5.757812 -3.484375 6.90625 -5.765625 C 7.039062 -6.054688 7.175781 -6.144531 7.3125 -6.03125 C 7.351562 -5.988281 7.375 -5.921875 7.375 -5.828125 C 7.375 -5.742188 7.296875 -5.523438 7.140625 -5.171875 C 6.984375 -4.828125 6.835938 -4.515625 6.703125 -4.234375 C 6.578125 -3.953125 6.328125 -3.492188 5.953125 -2.859375 C 5.585938 -2.234375 5.253906 -1.75 4.953125 -1.40625 C 4.128906 -0.46875 3.351562 0 2.625 0 C 1.894531 0 1.367188 -0.21875 1.046875 -0.65625 C 0.722656 -1.09375 0.5625 -1.582031 0.5625 -2.125 C 0.5625 -2.664062 0.691406 -3.257812 0.953125 -3.90625 L 2.875 -8.796875 C 2.914062 -8.910156 2.9375 -9.066406 2.9375 -9.265625 C 2.9375 -9.460938 2.816406 -9.722656 2.578125 -10.046875 L 4.234375 -10.078125 C 4.691406 -10.078125 4.957031 -9.988281 5.03125 -9.8125 C 5.113281 -9.644531 5.054688 -9.382812 4.859375 -9.03125 L 2.453125 -3.421875 C 2.117188 -2.679688 1.953125 -2.050781 1.953125 -1.53125 C 1.953125 -0.945312 2.257812 -0.65625 2.875 -0.65625 Z M 2.875 -0.65625 "/></g></g></g><g fill="#a6a6a6" fill-opacity="1"><g transform="translate(163.863169, 196.96528)"><g><path d="M 10.828125 -8.125 C 10.472656 -7.769531 9.960938 -6.957031 9.296875 -5.6875 C 8.640625 -4.414062 8.242188 -3.460938 8.109375 -2.828125 C 7.984375 -2.203125 7.921875 -1.691406 7.921875 -1.296875 C 7.921875 -0.910156 8.070312 -0.71875 8.375 -0.71875 C 8.75 -0.71875 9.21875 -1.066406 9.78125 -1.765625 C 10.601562 -2.785156 11.410156 -4.117188 12.203125 -5.765625 C 12.285156 -5.941406 12.378906 -6.039062 12.484375 -6.0625 C 12.640625 -6.125 12.71875 -6.0625 12.71875 -5.875 C 12.71875 -5.78125 12.6875 -5.660156 12.625 -5.515625 C 10.789062 -1.796875 9.242188 0.0625 7.984375 0.0625 C 7.398438 0.0625 6.925781 -0.21875 6.5625 -0.78125 C 6.382812 -1.082031 6.296875 -1.484375 6.296875 -1.984375 C 6.296875 -2.484375 6.394531 -3.09375 6.59375 -3.8125 C 5 -1.226562 3.617188 0.0625 2.453125 0.0625 C 2.140625 0.0625 1.851562 -0.0351562 1.59375 -0.234375 C 0.988281 -0.660156 0.6875 -1.382812 0.6875 -2.40625 C 0.6875 -4.363281 1.535156 -6.351562 3.234375 -8.375 C 4.203125 -9.488281 5.382812 -10.21875 6.78125 -10.5625 C 7.15625 -10.65625 7.515625 -10.703125 7.859375 -10.703125 C 8.773438 -10.703125 9.554688 -10.382812 10.203125 -9.75 C 10.398438 -9.53125 10.457031 -9.316406 10.375 -9.109375 C 10.300781 -8.910156 10.132812 -8.832031 9.875 -8.875 C 9.65625 -9.59375 9.175781 -9.953125 8.4375 -9.953125 C 7.570312 -9.953125 6.507812 -9.273438 5.25 -7.921875 C 4.53125 -7.117188 3.859375 -6.175781 3.234375 -5.09375 C 2.453125 -3.800781 2.0625 -2.765625 2.0625 -1.984375 C 2.0625 -1.203125 2.3125 -0.8125 2.8125 -0.8125 C 4.019531 -0.8125 5.59375 -2.648438 7.53125 -6.328125 C 7.90625 -7.066406 8.222656 -7.570312 8.484375 -7.84375 C 8.742188 -8.113281 9.078125 -8.25 9.484375 -8.25 C 9.554688 -8.25 9.757812 -8.21875 10.09375 -8.15625 C 10.425781 -8.09375 10.671875 -8.082031 10.828125 -8.125 Z M 10.828125 -8.125 "/></g></g></g><g fill="#a6a6a6" fill-opacity="1"><g transform="translate(174.363157, 196.96528)"><g><path d="M 10.765625 -9.84375 C 8.304688 -5.519531 7.078125 -2.695312 7.078125 -1.375 C 7.078125 -0.851562 7.269531 -0.59375 7.65625 -0.59375 C 8.675781 -0.59375 10.046875 -2.328125 11.765625 -5.796875 C 11.878906 -6.066406 11.992188 -6.171875 12.109375 -6.109375 C 12.234375 -6.054688 12.296875 -5.976562 12.296875 -5.875 C 12.296875 -5.78125 12.257812 -5.660156 12.1875 -5.515625 C 11.125 -3.378906 10.226562 -1.90625 9.5 -1.09375 C 8.769531 -0.28125 8.035156 0.125 7.296875 0.125 C 6.566406 0.125 6.015625 -0.15625 5.640625 -0.71875 C 5.441406 -0.976562 5.34375 -1.332031 5.34375 -1.78125 C 5.34375 -2.226562 5.441406 -2.769531 5.640625 -3.40625 C 5.835938 -4.050781 6.390625 -5.097656 7.296875 -6.546875 C 7.515625 -6.898438 7.625 -7.179688 7.625 -7.390625 C 7.625 -7.597656 7.453125 -7.703125 7.109375 -7.703125 C 6.765625 -7.703125 6.113281 -7.253906 5.15625 -6.359375 C 3.71875 -5.035156 2.328125 -3.054688 0.984375 -0.421875 C 0.867188 -0.222656 0.734375 -0.0976562 0.578125 -0.046875 C 0.429688 0.00390625 0.140625 0.0390625 -0.296875 0.0625 C -0.734375 0.0820312 -1.023438 0.128906 -1.171875 0.203125 C -0.847656 -0.429688 -0.21875 -1.738281 0.71875 -3.71875 C 2.394531 -7.21875 3.492188 -9.21875 4.015625 -9.71875 C 4.253906 -9.957031 4.585938 -10.078125 5.015625 -10.078125 C 5.085938 -10.078125 5.289062 -10.046875 5.625 -9.984375 C 5.957031 -9.929688 6.203125 -9.921875 6.359375 -9.953125 C 5.617188 -9.554688 4.410156 -7.675781 2.734375 -4.3125 C 3.671875 -5.476562 4.523438 -6.40625 5.296875 -7.09375 C 6.066406 -7.78125 6.988281 -8.421875 8.0625 -9.015625 C 9.144531 -9.609375 9.9375 -9.90625 10.4375 -9.90625 C 10.5625 -9.90625 10.671875 -9.882812 10.765625 -9.84375 Z M 10.765625 -9.84375 "/></g></g></g><g fill="#a6a6a6" fill-opacity="1"><g transform="translate(184.422585, 196.96528)"><g/></g></g><g fill="#a6a6a6" fill-opacity="1"><g transform="translate(192.192574, 196.96528)"><g/></g></g><g fill="#a6a6a6" fill-opacity="1"><g transform="translate(199.973362, 196.96528)"><g><path d="M 19.921875 -13.34375 C 20.378906 -13.34375 20.609375 -13.054688 20.609375 -12.484375 C 20.609375 -11.859375 20.359375 -11.273438 19.859375 -10.734375 C 18.984375 -9.753906 18.175781 -8.523438 17.4375 -7.046875 C 16.3125 -4.804688 15.75 -2.785156 15.75 -0.984375 C 15.75 -0.285156 15.875 0.21875 16.125 0.53125 C 16.375 0.851562 16.660156 1.015625 16.984375 1.015625 C 17.941406 1.015625 19.0625 0.238281 20.34375 -1.3125 C 21.476562 -2.78125 22.347656 -4.203125 22.953125 -5.578125 C 23.109375 -5.898438 23.265625 -6.039062 23.421875 -6 C 23.585938 -5.957031 23.597656 -5.773438 23.453125 -5.453125 C 22.640625 -3.640625 21.710938 -2.039062 20.671875 -0.65625 C 20.128906 0.0820312 19.457031 0.695312 18.65625 1.1875 C 17.851562 1.675781 17.054688 1.921875 16.265625 1.921875 C 15.484375 1.921875 14.890625 1.601562 14.484375 0.96875 C 14.085938 0.34375 13.890625 -0.394531 13.890625 -1.25 C 13.890625 -2.113281 13.992188 -2.960938 14.203125 -3.796875 C 14.410156 -4.640625 14.6875 -5.296875 15.03125 -5.765625 C 13.007812 -3.335938 10.859375 -1.394531 8.578125 0.0625 C 7.378906 0.800781 6.050781 1.238281 4.59375 1.375 C 4.445312 1.394531 4.207031 1.40625 3.875 1.40625 C 3.550781 1.40625 3.160156 1.285156 2.703125 1.046875 C 1.265625 0.453125 0.546875 -1.007812 0.546875 -3.34375 C 0.546875 -5.675781 1.300781 -8.203125 2.8125 -10.921875 C 3.613281 -12.359375 4.492188 -13.628906 5.453125 -14.734375 C 4.117188 -15.367188 3.117188 -16.054688 2.453125 -16.796875 C 1.972656 -17.335938 1.734375 -17.988281 1.734375 -18.75 C 1.734375 -19.507812 1.882812 -19.988281 2.1875 -20.1875 C 2.382812 -20.445312 2.566406 -20.5 2.734375 -20.34375 C 2.847656 -20.15625 2.847656 -19.929688 2.734375 -19.671875 C 2.628906 -19.421875 2.578125 -19.175781 2.578125 -18.9375 C 2.578125 -18.394531 2.863281 -17.789062 3.4375 -17.125 C 4.019531 -16.46875 4.875 -15.878906 6 -15.359375 C 10.695312 -20.578125 15.578125 -23.1875 20.640625 -23.1875 C 22.222656 -23.1875 23.476562 -22.832031 24.40625 -22.125 C 25.332031 -21.414062 25.796875 -20.5 25.796875 -19.375 C 25.796875 -18.15625 25.117188 -16.976562 23.765625 -15.84375 C 23.078125 -15.238281 22.101562 -14.71875 20.84375 -14.28125 C 18.925781 -13.601562 16.640625 -13.265625 13.984375 -13.265625 C 11.335938 -13.265625 9.144531 -13.539062 7.40625 -14.09375 C 5.382812 -11.238281 3.992188 -8.863281 3.234375 -6.96875 C 2.472656 -5.082031 2.09375 -3.617188 2.09375 -2.578125 C 2.09375 -2.359375 2.101562 -2.160156 2.125 -1.984375 C 2.363281 -0.316406 3.207031 0.515625 4.65625 0.515625 C 6.269531 0.515625 8.148438 -0.363281 10.296875 -2.125 C 11.804688 -3.40625 13.289062 -4.925781 14.75 -6.6875 C 16.21875 -8.445312 17.304688 -9.992188 18.015625 -11.328125 C 18.722656 -12.671875 19.359375 -13.34375 19.921875 -13.34375 Z M 24.5625 -19.734375 C 24.5625 -20.597656 24.207031 -21.257812 23.5 -21.71875 C 22.789062 -22.175781 21.816406 -22.40625 20.578125 -22.40625 C 19.335938 -22.40625 18.101562 -22.203125 16.875 -21.796875 C 15.644531 -21.398438 14.492188 -20.8125 13.421875 -20.03125 C 12.347656 -19.257812 11.394531 -18.460938 10.5625 -17.640625 C 9.738281 -16.816406 8.847656 -15.835938 7.890625 -14.703125 C 9.390625 -14.222656 11.226562 -13.984375 13.40625 -13.984375 C 17.507812 -13.984375 20.5 -14.640625 22.375 -15.953125 C 23.832031 -16.972656 24.5625 -18.234375 24.5625 -19.734375 Z M 24.5625 -19.734375 "/></g></g></g><g fill="#a6a6a6" fill-opacity="1"><g transform="translate(221.333346, 196.96528)"><g><path d="M 3.0625 7.703125 C 2.800781 7.328125 2.671875 6.96875 2.671875 6.625 C 2.671875 6.289062 3 5.375 3.65625 3.875 C 4.320312 2.375 5.109375 0.707031 6.015625 -1.125 C 6.921875 -2.957031 7.503906 -4.160156 7.765625 -4.734375 C 7.460938 -4.203125 6.765625 -3.1875 5.671875 -1.6875 C 4.734375 -0.582031 3.820312 -0.03125 2.9375 -0.03125 C 2.738281 -0.03125 2.539062 -0.0625 2.34375 -0.125 C 1.320312 -0.5625 0.8125 -1.421875 0.8125 -2.703125 C 0.8125 -4.421875 1.671875 -6.3125 3.390625 -8.375 C 4.328125 -9.488281 5.425781 -10.195312 6.6875 -10.5 C 7.03125 -10.601562 7.367188 -10.65625 7.703125 -10.65625 C 8.609375 -10.65625 9.476562 -10.351562 10.3125 -9.75 C 10.65625 -9.488281 10.828125 -9.265625 10.828125 -9.078125 C 10.828125 -8.898438 10.785156 -8.765625 10.703125 -8.671875 C 10.546875 -8.429688 10.367188 -8.410156 10.171875 -8.609375 C 10.109375 -8.671875 10.054688 -8.757812 10.015625 -8.875 C 9.734375 -9.632812 9.320312 -10.015625 8.78125 -10.015625 C 8.25 -10.015625 7.640625 -9.773438 6.953125 -9.296875 C 5.640625 -8.378906 4.53125 -7.144531 3.625 -5.59375 C 2.726562 -4.039062 2.28125 -2.882812 2.28125 -2.125 C 2.28125 -1.550781 2.476562 -1.171875 2.875 -0.984375 C 2.976562 -0.953125 3.085938 -0.9375 3.203125 -0.9375 C 4.191406 -0.9375 5.675781 -2.570312 7.65625 -5.84375 C 8.207031 -6.75 8.585938 -7.285156 8.796875 -7.453125 C 9.015625 -7.617188 9.210938 -7.703125 9.390625 -7.703125 C 9.566406 -7.703125 9.6875 -7.703125 9.75 -7.703125 C 9.8125 -7.703125 9.988281 -7.675781 10.28125 -7.625 C 10.582031 -7.582031 10.816406 -7.570312 10.984375 -7.59375 C 9.898438 -5.925781 8.488281 -3.066406 6.75 0.984375 C 5.007812 5.046875 4.070312 7.585938 3.9375 8.609375 C 3.851562 8.472656 3.695312 8.296875 3.46875 8.078125 C 3.238281 7.867188 3.101562 7.742188 3.0625 7.703125 Z M 3.0625 7.703125 "/></g></g></g><g fill="#a6a6a6" fill-opacity="1"><g transform="translate(231.593339, 196.96528)"><g><path d="M 0.65625 -1.734375 C 0.65625 -2.597656 1.023438 -3.640625 1.765625 -4.859375 C 1.453125 -4.859375 1.363281 -5.019531 1.5 -5.34375 L 2.046875 -6.390625 C 2.722656 -7.691406 3.28125 -8.789062 3.71875 -9.6875 C 3.914062 -10.101562 4.304688 -10.3125 4.890625 -10.3125 L 6.71875 -10.3125 C 6 -9.800781 5.273438 -8.796875 4.546875 -7.296875 C 3.816406 -5.804688 3.25 -4.632812 2.84375 -3.78125 C 2.445312 -2.9375 2.25 -2.296875 2.25 -1.859375 C 2.25 -1.421875 2.320312 -1.109375 2.46875 -0.921875 C 2.625 -0.742188 2.832031 -0.65625 3.09375 -0.65625 C 3.46875 -0.65625 4 -1.054688 4.6875 -1.859375 C 5.738281 -3.097656 7.226562 -5.707031 9.15625 -9.6875 C 9.375 -10.101562 9.757812 -10.3125 10.3125 -10.3125 L 11.9375 -10.3125 C 11.5 -9.976562 11.15625 -9.628906 10.90625 -9.265625 C 10.65625 -8.910156 10.3125 -8.269531 9.875 -7.34375 C 8.664062 -4.945312 7.992188 -3.359375 7.859375 -2.578125 C 7.796875 -2.296875 7.765625 -2.035156 7.765625 -1.796875 C 7.765625 -1.160156 7.988281 -0.820312 8.4375 -0.78125 C 9.507812 -0.78125 10.835938 -2.453125 12.421875 -5.796875 C 12.535156 -6.066406 12.648438 -6.171875 12.765625 -6.109375 C 12.890625 -6.054688 12.953125 -5.976562 12.953125 -5.875 C 12.953125 -5.78125 12.863281 -5.550781 12.6875 -5.1875 C 12.507812 -4.832031 12.332031 -4.484375 12.15625 -4.140625 C 11.988281 -3.796875 11.726562 -3.328125 11.375 -2.734375 C 11.03125 -2.148438 10.707031 -1.6875 10.40625 -1.34375 C 9.625 -0.46875 8.859375 -0.03125 8.109375 -0.03125 C 7.359375 -0.03125 6.84375 -0.359375 6.5625 -1.015625 C 6.445312 -1.316406 6.390625 -1.695312 6.390625 -2.15625 C 6.390625 -2.613281 6.488281 -3.1875 6.6875 -3.875 C 5.226562 -1.3125 3.878906 -0.03125 2.640625 -0.03125 C 1.554688 -0.03125 0.925781 -0.476562 0.75 -1.375 C 0.6875 -1.476562 0.65625 -1.597656 0.65625 -1.734375 Z M 0.65625 -1.734375 "/></g></g></g><g fill="#a6a6a6" fill-opacity="1"><g transform="translate(242.303326, 196.96528)"><g><path d="M 5.8125 -11.671875 C 5.539062 -11.429688 5.234375 -11.3125 4.890625 -11.3125 C 4.546875 -11.3125 4.273438 -11.429688 4.078125 -11.671875 C 3.878906 -11.910156 3.800781 -12.203125 3.84375 -12.546875 C 3.90625 -12.878906 4.070312 -13.164062 4.34375 -13.40625 C 4.625 -13.644531 4.9375 -13.765625 5.28125 -13.765625 C 5.625 -13.765625 5.898438 -13.644531 6.109375 -13.40625 C 6.316406 -13.164062 6.390625 -12.875 6.328125 -12.53125 C 6.265625 -12.195312 6.09375 -11.910156 5.8125 -11.671875 Z M 2.875 -0.65625 C 3.257812 -0.65625 3.660156 -0.847656 4.078125 -1.234375 C 4.816406 -1.972656 5.757812 -3.484375 6.90625 -5.765625 C 7.039062 -6.054688 7.175781 -6.144531 7.3125 -6.03125 C 7.351562 -5.988281 7.375 -5.921875 7.375 -5.828125 C 7.375 -5.742188 7.296875 -5.523438 7.140625 -5.171875 C 6.984375 -4.828125 6.835938 -4.515625 6.703125 -4.234375 C 6.578125 -3.953125 6.328125 -3.492188 5.953125 -2.859375 C 5.585938 -2.234375 5.253906 -1.75 4.953125 -1.40625 C 4.128906 -0.46875 3.351562 0 2.625 0 C 1.894531 0 1.367188 -0.21875 1.046875 -0.65625 C 0.722656 -1.09375 0.5625 -1.582031 0.5625 -2.125 C 0.5625 -2.664062 0.691406 -3.257812 0.953125 -3.90625 L 2.875 -8.796875 C 2.914062 -8.910156 2.9375 -9.066406 2.9375 -9.265625 C 2.9375 -9.460938 2.816406 -9.722656 2.578125 -10.046875 L 4.234375 -10.078125 C 4.691406 -10.078125 4.957031 -9.988281 5.03125 -9.8125 C 5.113281 -9.644531 5.054688 -9.382812 4.859375 -9.03125 L 2.453125 -3.421875 C 2.117188 -2.679688 1.953125 -2.050781 1.953125 -1.53125 C 1.953125 -0.945312 2.257812 -0.65625 2.875 -0.65625 Z M 2.875 -0.65625 "/></g></g></g><g fill="#a6a6a6" fill-opacity="1"><g transform="translate(247.52332, 196.96528)"><g><path d="M 3.359375 -5.796875 C 3.335938 -5.710938 3.242188 -5.4375 3.078125 -4.96875 C 2.921875 -4.5 2.785156 -4.046875 2.671875 -3.609375 C 2.566406 -3.179688 2.515625 -2.753906 2.515625 -2.328125 C 2.515625 -1.898438 2.613281 -1.5 2.8125 -1.125 C 3.019531 -0.75 3.34375 -0.5625 3.78125 -0.5625 C 4.5 -0.5625 5.195312 -1.046875 5.875 -2.015625 C 6.5625 -2.992188 7.285156 -4.234375 8.046875 -5.734375 C 8.203125 -6.015625 8.347656 -6.125 8.484375 -6.0625 C 8.585938 -5.976562 8.609375 -5.867188 8.546875 -5.734375 C 8.484375 -5.609375 8.359375 -5.332031 8.171875 -4.90625 C 7.984375 -4.476562 7.84375 -4.175781 7.75 -4 C 7.664062 -3.832031 7.507812 -3.53125 7.28125 -3.09375 C 7.050781 -2.664062 6.847656 -2.347656 6.671875 -2.140625 C 6.503906 -1.929688 6.273438 -1.660156 5.984375 -1.328125 C 5.691406 -1.003906 5.414062 -0.757812 5.15625 -0.59375 C 4.457031 -0.15625 3.796875 0.0625 3.171875 0.0625 C 2.554688 0.0625 2.078125 -0.0703125 1.734375 -0.34375 C 1.398438 -0.613281 1.195312 -0.90625 1.125 -1.21875 C 1.050781 -1.53125 1.015625 -1.804688 1.015625 -2.046875 C 1.015625 -2.285156 1.023438 -2.59375 1.046875 -2.96875 C 1.109375 -3.613281 1.234375 -4.234375 1.421875 -4.828125 C 1.609375 -5.429688 1.710938 -5.769531 1.734375 -5.84375 C 2.203125 -7.507812 2.859375 -9.320312 3.703125 -11.28125 C 4.554688 -13.238281 5.273438 -14.710938 5.859375 -15.703125 C 6.453125 -16.691406 6.921875 -17.367188 7.265625 -17.734375 C 7.941406 -18.453125 8.609375 -18.8125 9.265625 -18.8125 C 9.722656 -18.8125 10.035156 -18.476562 10.203125 -17.8125 C 10.222656 -17.695312 10.234375 -17.550781 10.234375 -17.375 C 10.234375 -16.6875 9.992188 -15.828125 9.515625 -14.796875 C 7.796875 -10.972656 5.742188 -7.972656 3.359375 -5.796875 Z M 3.59375 -6.75 C 4.613281 -7.789062 5.625 -9.097656 6.625 -10.671875 C 7.625 -12.253906 8.359375 -13.597656 8.828125 -14.703125 C 9.304688 -15.816406 9.546875 -16.570312 9.546875 -16.96875 C 9.546875 -17.375 9.472656 -17.578125 9.328125 -17.578125 C 9.128906 -17.578125 8.75 -17.179688 8.1875 -16.390625 C 7.625 -15.597656 6.867188 -14.175781 5.921875 -12.125 C 4.972656 -10.082031 4.195312 -8.289062 3.59375 -6.75 Z M 3.59375 -6.75 "/></g></g></g><g fill="#a6a6a6" fill-opacity="1"><g transform="translate(253.883316, 196.96528)"><g><path d="M 3.03125 -4.625 C 2.75 -3.9375 2.609375 -3.175781 2.609375 -2.34375 C 2.609375 -1.78125 2.734375 -1.332031 2.984375 -1 C 3.234375 -0.675781 3.585938 -0.515625 4.046875 -0.515625 C 5.867188 -0.515625 7.519531 -2.222656 9 -5.640625 C 9.132812 -5.960938 9.304688 -6.101562 9.515625 -6.0625 C 9.585938 -6.039062 9.625 -5.988281 9.625 -5.90625 C 9.625 -5.832031 9.398438 -5.304688 8.953125 -4.328125 C 8.503906 -3.359375 8.050781 -2.578125 7.59375 -1.984375 C 6.570312 -0.578125 5.3125 0.125 3.8125 0.125 C 3.007812 0.125 2.328125 -0.132812 1.765625 -0.65625 C 1.210938 -1.175781 0.9375 -1.882812 0.9375 -2.78125 C 0.9375 -3.6875 1.148438 -4.644531 1.578125 -5.65625 C 2.003906 -6.664062 2.585938 -7.601562 3.328125 -8.46875 C 4.066406 -9.34375 4.914062 -9.976562 5.875 -10.375 C 6.332031 -10.582031 6.769531 -10.6875 7.1875 -10.6875 C 7.613281 -10.6875 8.007812 -10.5625 8.375 -10.3125 C 8.707031 -10.039062 8.875 -9.734375 8.875 -9.390625 C 8.875 -8.191406 8.15625 -7.039062 6.71875 -5.9375 C 6.28125 -5.601562 5.660156 -5.300781 4.859375 -5.03125 C 4.054688 -4.757812 3.445312 -4.625 3.03125 -4.625 Z M 8.0625 -9.421875 C 8.0625 -9.816406 7.90625 -10.015625 7.59375 -10.015625 C 7.03125 -10.015625 6.179688 -9.328125 5.046875 -7.953125 C 4.359375 -7.109375 3.753906 -6.164062 3.234375 -5.125 C 3.578125 -5.125 4.070312 -5.242188 4.71875 -5.484375 C 5.375 -5.722656 5.941406 -6.046875 6.421875 -6.453125 C 7.515625 -7.390625 8.0625 -8.378906 8.0625 -9.421875 Z M 8.0625 -9.421875 "/></g></g></g><g fill="#a6a6a6" fill-opacity="1"><g transform="translate(261.263313, 196.96528)"><g><path d="M 4.296875 -0.5625 C 4.554688 -0.53125 4.734375 -0.515625 4.828125 -0.515625 C 5.628906 -0.515625 6.421875 -0.984375 7.203125 -1.921875 C 7.617188 -2.441406 8.367188 -3.75 9.453125 -5.84375 C 9.492188 -5.945312 9.5625 -6 9.65625 -6 C 9.84375 -6.019531 9.9375 -5.953125 9.9375 -5.796875 C 9.9375 -5.753906 9.890625 -5.632812 9.796875 -5.4375 C 9.703125 -5.25 9.613281 -5.0625 9.53125 -4.875 C 9.457031 -4.6875 9.328125 -4.410156 9.140625 -4.046875 C 8.960938 -3.691406 8.804688 -3.398438 8.671875 -3.171875 C 8.546875 -2.953125 8.382812 -2.679688 8.1875 -2.359375 C 7.988281 -2.046875 7.789062 -1.800781 7.59375 -1.625 L 6.96875 -0.953125 C 6.625 -0.617188 6.222656 -0.378906 5.765625 -0.234375 C 5.023438 0.00390625 4.300781 0.0195312 3.59375 -0.1875 C 3.132812 0.0195312 2.726562 0.125 2.375 0.125 C 0.945312 0.125 0.0859375 -0.4375 -0.203125 -1.5625 C -0.265625 -1.820312 -0.296875 -2.132812 -0.296875 -2.5 C -0.296875 -2.875 -0.171875 -3.226562 0.078125 -3.5625 C 0.328125 -3.90625 0.59375 -4.085938 0.875 -4.109375 C 1.894531 -6.046875 2.765625 -7.796875 3.484375 -9.359375 C 4.285156 -11.054688 5.210938 -11.90625 6.265625 -11.90625 C 6.546875 -11.90625 6.820312 -11.835938 7.09375 -11.703125 C 7.363281 -11.578125 7.460938 -11.4375 7.390625 -11.28125 C 7.328125 -11.125 7.179688 -11.09375 6.953125 -11.1875 C 6.734375 -11.289062 6.546875 -11.34375 6.390625 -11.34375 C 6.234375 -11.34375 6.09375 -11.3125 5.96875 -11.25 C 5.289062 -10.925781 4.953125 -10.238281 4.953125 -9.1875 C 4.953125 -8.625 5.03125 -8.160156 5.1875 -7.796875 C 5.351562 -7.441406 5.535156 -7.050781 5.734375 -6.625 C 6.191406 -5.582031 6.421875 -4.734375 6.421875 -4.078125 C 6.421875 -3.421875 6.207031 -2.769531 5.78125 -2.125 C 5.363281 -1.488281 4.867188 -0.96875 4.296875 -0.5625 Z M 3.265625 -0.78125 C 4.148438 -1.457031 4.59375 -2.554688 4.59375 -4.078125 C 4.59375 -4.703125 4.519531 -5.550781 4.375 -6.625 C 4.238281 -7.707031 4.171875 -8.4375 4.171875 -8.8125 C 4.171875 -9.195312 4.179688 -9.457031 4.203125 -9.59375 C 2.679688 -6.5625 1.738281 -4.710938 1.375 -4.046875 C 1.800781 -4.046875 2.015625 -3.75 2.015625 -3.15625 C 2.015625 -1.96875 2.429688 -1.175781 3.265625 -0.78125 Z M 1.015625 -1.59375 C 1.015625 -1.46875 1.023438 -1.335938 1.046875 -1.203125 C 1.210938 -0.660156 1.582031 -0.390625 2.15625 -0.390625 C 2.394531 -0.390625 2.597656 -0.429688 2.765625 -0.515625 C 2.023438 -0.972656 1.625 -1.722656 1.5625 -2.765625 C 1.195312 -2.398438 1.015625 -2.007812 1.015625 -1.59375 Z M 1.015625 -1.59375 "/></g></g></g></svg>