<svg xmlns="http://www.w3.org/2000/svg" xmlns:xlink="http://www.w3.org/1999/xlink" width="500" zoomAndPan="magnify" viewBox="0 0 375 374.999991" height="500" preserveAspectRatio="xMidYMid meet" version="1.0"><defs><g/><clipPath id="8cd73bcd34"><path d="M 0 176.890625 L 375 176.890625 L 375 221.449219 L 0 221.449219 Z M 0 176.890625 " clip-rule="nonzero"/></clipPath></defs><g fill="#430c29" fill-opacity="1"><g transform="translate(46.957048, 248.861651)"><g><path d="M 58.078125 0 L 15.171875 -122.15625 C 13.796875 -125.90625 12.109375 -128.46875 10.109375 -129.84375 C 8.117188 -131.21875 5.5 -131.90625 2.25 -131.90625 L 0 -131.90625 L 0 -133.78125 L 54.328125 -133.78125 L 54.328125 -131.90625 L 47.96875 -131.90625 C 44.59375 -131.90625 42 -131.40625 40.1875 -130.40625 C 38.375 -129.40625 37.46875 -127.59375 37.46875 -124.96875 C 37.46875 -122.71875 38.09375 -119.84375 39.34375 -116.34375 L 62.203125 -49.84375 C 66.578125 -37.351562 70.015625 -26.171875 72.515625 -16.296875 C 73.878906 -20.921875 75.4375 -26.039062 77.1875 -31.65625 C 78.9375 -37.28125 80.625 -42.59375 82.25 -47.59375 L 103.796875 -115.03125 C 105.171875 -118.90625 105.859375 -121.96875 105.859375 -124.21875 C 105.859375 -127.09375 104.890625 -129.09375 102.953125 -130.21875 C 101.015625 -131.34375 97.921875 -131.90625 93.671875 -131.90625 L 82.25 -131.90625 L 82.25 -133.78125 L 127.59375 -133.78125 L 127.59375 -131.90625 L 121.21875 -131.90625 C 117.59375 -131.90625 114.71875 -130.875 112.59375 -128.8125 C 110.476562 -126.75 108.609375 -123.03125 106.984375 -117.65625 L 68.953125 0 Z M 58.078125 0 "/></g></g></g><g fill="#430c29" fill-opacity="1"><g transform="translate(174.538987, 248.861651)"><g><path d="M 0.1875 0 L 0.1875 -1.875 L 6.1875 -1.875 C 10.050781 -1.875 13.109375 -2.9375 15.359375 -5.0625 C 17.609375 -7.1875 19.671875 -10.929688 21.546875 -16.296875 L 63.140625 -133.78125 L 75.125 -133.78125 L 120.65625 -12.734375 C 122.28125 -8.617188 123.96875 -5.78125 125.71875 -4.21875 C 127.46875 -2.65625 129.78125 -1.875 132.65625 -1.875 L 134.53125 -1.875 L 134.53125 0 L 80.1875 0 L 80.1875 -1.875 L 86.1875 -1.875 C 90.4375 -1.875 93.492188 -2.40625 95.359375 -3.46875 C 97.234375 -4.53125 98.171875 -6.4375 98.171875 -9.1875 C 98.171875 -10.175781 98.046875 -11.390625 97.796875 -12.828125 C 97.546875 -14.265625 97.109375 -15.859375 96.484375 -17.609375 L 85.25 -48.71875 L 35.21875 -48.71875 L 24.734375 -19.296875 C 24.109375 -17.421875 23.609375 -15.765625 23.234375 -14.328125 C 22.859375 -12.890625 22.671875 -11.550781 22.671875 -10.3125 C 22.671875 -7.1875 23.953125 -5 26.515625 -3.75 C 29.078125 -2.5 33.226562 -1.875 38.96875 -1.875 L 45.71875 -1.875 L 45.71875 0 Z M 35.78125 -50.59375 L 84.5 -50.59375 L 71.390625 -86.5625 C 69.265625 -92.425781 67.203125 -98.328125 65.203125 -104.265625 C 63.203125 -110.203125 61.578125 -115.664062 60.328125 -120.65625 C 58.578125 -115.414062 56.859375 -110.421875 55.171875 -105.671875 C 53.484375 -100.921875 51.582031 -95.488281 49.46875 -89.375 Z M 35.78125 -50.59375 "/></g></g></g><g clip-path="url(#8cd73bcd34)"><path fill="#ffffff" d="M -42.691406 176.890625 L 424.222656 176.890625 L 424.222656 221.449219 L -42.691406 221.449219 Z M -42.691406 176.890625 " fill-opacity="1" fill-rule="nonzero"/></g><g fill="#b38c9f" fill-opacity="1"><g transform="translate(30.559145, 205.208702)"><g><path d="M 6.019531 0.773438 L 11.832031 -12.832031 L 10.398438 -12.832031 L 6.019531 -2.492188 L 1.625 -12.832031 L 0.1875 -12.832031 Z M 6.019531 0.773438 "/></g></g></g><g fill="#b38c9f" fill-opacity="1"><g transform="translate(57.082971, 205.208702)"><g><path d="M 2.738281 0 L 2.738281 -12.832031 L 1.414062 -12.832031 L 1.414062 0 Z M 2.738281 0 "/></g></g></g><g fill="#b38c9f" fill-opacity="1"><g transform="translate(75.736901, 205.208702)"><g><path d="M 6.019531 0.773438 L 11.832031 -12.832031 L 10.398438 -12.832031 L 6.019531 -2.492188 L 1.625 -12.832031 L 0.1875 -12.832031 Z M 6.019531 0.773438 "/></g></g></g><g fill="#b38c9f" fill-opacity="1"><g transform="translate(102.26073, 205.208702)"><g><path d="M 2.738281 0 L 2.738281 -12.832031 L 1.414062 -12.832031 L 1.414062 0 Z M 2.738281 0 "/></g></g></g><g fill="#b38c9f" fill-opacity="1"><g transform="translate(120.914658, 205.208702)"><g><path d="M 3.492188 -4.71875 L 5.832031 -10.625 L 8.152344 -4.71875 Z M 11.457031 0 L 5.832031 -13.722656 L 0.1875 0 L 1.625 0 L 3 -3.492188 L 8.644531 -3.492188 L 10.023438 0 Z M 11.457031 0 "/></g></g></g><g fill="#b38c9f" fill-opacity="1"><g transform="translate(147.06103, 205.208702)"><g><path d="M 2.738281 -9.457031 L 9.945312 0.792969 L 9.945312 -12.832031 L 8.625 -12.832031 L 8.625 -3.398438 L 1.414062 -13.644531 L 1.414062 0 L 2.738281 0 Z M 2.738281 -9.457031 "/></g></g></g><g fill="#b38c9f" fill-opacity="1"><g transform="translate(172.92432, 205.208702)"><g/></g></g><g fill="#b38c9f" fill-opacity="1"><g transform="translate(192.521879, 205.208702)"><g><path d="M 3.492188 -4.71875 L 5.832031 -10.625 L 8.152344 -4.71875 Z M 11.457031 0 L 5.832031 -13.722656 L 0.1875 0 L 1.625 0 L 3 -3.492188 L 8.644531 -3.492188 L 10.023438 0 Z M 11.457031 0 "/></g></g></g><g fill="#b38c9f" fill-opacity="1"><g transform="translate(218.668251, 205.208702)"><g><path d="M 14.042969 -6.398438 C 14.042969 -7.304688 13.851562 -8.152344 13.511719 -8.964844 C 13.171875 -9.757812 12.703125 -10.457031 12.097656 -11.058594 C 11.492188 -11.664062 10.796875 -12.136719 10.003906 -12.476562 C 9.191406 -12.816406 8.34375 -13.003906 7.4375 -13.003906 C 6.53125 -13.003906 5.660156 -12.816406 4.871094 -12.476562 C 4.078125 -12.136719 3.378906 -11.664062 2.773438 -11.058594 C 2.171875 -10.457031 1.699219 -9.757812 1.359375 -8.964844 C 1.019531 -8.152344 0.847656 -7.304688 0.847656 -6.398438 C 0.847656 -5.492188 1.019531 -4.625 1.359375 -3.832031 C 1.699219 -3.039062 2.171875 -2.339844 2.773438 -1.738281 C 3.378906 -1.132812 4.078125 -0.660156 4.871094 -0.320312 C 5.660156 0.0195312 6.53125 0.1875 7.4375 0.1875 C 7.964844 0.1875 8.492188 0.132812 9.003906 0 L 14.230469 0 L 14.230469 -1.074219 L 12.304688 -1.074219 C 11.832031 -0.960938 11.34375 -0.847656 10.8125 -0.734375 C 11.285156 -1.019531 11.71875 -1.359375 12.097656 -1.738281 C 12.703125 -2.339844 13.171875 -3.039062 13.511719 -3.832031 C 13.851562 -4.625 14.042969 -5.492188 14.042969 -6.398438 Z M 12.71875 -6.398438 C 12.71875 -4.945312 12.191406 -3.699219 11.171875 -2.679688 C 10.136719 -1.640625 8.890625 -1.132812 7.4375 -1.132812 C 5.984375 -1.132812 4.738281 -1.640625 3.71875 -2.679688 C 2.679688 -3.699219 2.171875 -4.945312 2.171875 -6.398438 C 2.171875 -7.851562 2.679688 -9.097656 3.71875 -10.136719 C 4.738281 -11.152344 5.984375 -11.683594 7.4375 -11.683594 C 8.890625 -11.683594 10.136719 -11.152344 11.171875 -10.136719 C 12.191406 -9.097656 12.71875 -7.851562 12.71875 -6.398438 Z M 12.71875 -6.398438 "/></g></g></g><g fill="#b38c9f" fill-opacity="1"><g transform="translate(247.966362, 205.208702)"><g><path d="M 10.699219 -4.246094 L 10.699219 -12.832031 L 9.378906 -12.832031 L 9.378906 -4.058594 C 9.378906 -3.53125 9.285156 -3.09375 9.097656 -2.738281 C 8.550781 -1.679688 7.492188 -1.152344 5.925781 -1.152344 C 4.90625 -1.152344 4.09375 -1.378906 3.492188 -1.832031 C 2.792969 -2.339844 2.453125 -3.078125 2.453125 -4.058594 L 2.453125 -12.832031 L 1.132812 -12.832031 L 1.132812 -4.246094 C 1.132812 -2.851562 1.585938 -1.753906 2.492188 -0.960938 C 3.339844 -0.207031 4.492188 0.167969 5.925781 0.167969 C 7.339844 0.167969 8.472656 -0.207031 9.34375 -0.960938 C 10.25 -1.753906 10.699219 -2.851562 10.699219 -4.246094 Z M 10.699219 -4.246094 "/></g></g></g><g fill="#b38c9f" fill-opacity="1"><g transform="translate(274.301459, 205.208702)"><g><path d="M 2.738281 0 L 2.738281 -12.832031 L 1.414062 -12.832031 L 1.414062 0 Z M 2.738281 0 "/></g></g></g><g fill="#b38c9f" fill-opacity="1"><g transform="translate(292.955388, 205.208702)"><g><path d="M 2.738281 -1.320312 L 2.738281 -12.832031 L 1.414062 -12.832031 L 1.414062 0 L 7.324219 0 L 7.324219 -1.320312 Z M 2.738281 -1.320312 "/></g></g></g><g fill="#b38c9f" fill-opacity="1"><g transform="translate(315.157393, 205.208702)"><g><path d="M 9.039062 0 L 9.039062 -1.226562 L 2.738281 -1.226562 L 2.738281 -5.792969 L 8.851562 -5.792969 L 8.851562 -7.039062 L 2.738281 -7.039062 L 2.738281 -11.605469 L 9.039062 -11.605469 L 9.039062 -12.832031 L 1.414062 -12.832031 L 1.414062 0 Z M 9.039062 0 "/></g></g></g><g fill="#b38c9f" fill-opacity="1"><g transform="translate(340.114814, 205.208702)"><g><path d="M 4.964844 -6.039062 C 6.625 -5.644531 7.757812 -5.210938 8.359375 -4.71875 C 8.777344 -4.378906 8.984375 -3.945312 8.984375 -3.417969 C 8.984375 -2.886719 8.871094 -2.453125 8.644531 -2.152344 C 8.078125 -1.359375 7.058594 -0.960938 5.625 -0.960938 C 3.625 -0.960938 2.492188 -1.640625 2.246094 -3 L 0.699219 -3 C 1.152344 -0.832031 2.792969 0.246094 5.625 0.246094 C 6.890625 0.246094 7.945312 -0.0195312 8.796875 -0.585938 C 9.8125 -1.246094 10.34375 -2.226562 10.34375 -3.511719 C 10.34375 -4.566406 9.925781 -5.378906 9.097656 -5.945312 C 8.511719 -6.359375 7.566406 -6.738281 6.265625 -7.078125 C 4.945312 -7.417969 4.09375 -7.699219 3.699219 -7.90625 C 2.832031 -8.34375 2.398438 -8.945312 2.414062 -9.738281 C 2.414062 -10.152344 2.492188 -10.511719 2.679688 -10.777344 C 3.171875 -11.511719 4.039062 -11.890625 5.285156 -11.890625 C 7.039062 -11.890625 8.039062 -11.324219 8.304688 -10.230469 L 9.738281 -10.230469 C 9.265625 -12.078125 7.777344 -13.023438 5.285156 -13.023438 C 4.152344 -13.023438 3.152344 -12.71875 2.320312 -12.117188 C 1.472656 -11.511719 1.039062 -10.625 1.039062 -9.417969 C 1.039062 -7.777344 2.359375 -6.644531 4.964844 -6.039062 Z M 4.964844 -6.039062 "/></g></g></g></svg>